<mxfile host="Electron" agent="Mozilla/5.0 (Windows NT 10.0; Win64; x64) AppleWebKit/537.36 (KHTML, like Gecko) draw.io/25.0.2 Chrome/128.0.6613.186 Electron/32.2.5 Safari/537.36" version="25.0.2" pages="6">
  <diagram id="i3Hsa-QPVh4oRGfARltU" name="Блоксхема">
    <mxGraphModel dx="1408" dy="2505" grid="1" gridSize="10" guides="1" tooltips="1" connect="1" arrows="1" fold="1" page="1" pageScale="1" pageWidth="1169" pageHeight="827" math="0" shadow="0">
      <root>
        <mxCell id="0" />
        <mxCell id="1" parent="0" />
        <mxCell id="V6hN7ZL_rzsTTCwFuk5g-14" style="edgeStyle=orthogonalEdgeStyle;rounded=0;orthogonalLoop=1;jettySize=auto;html=1;" parent="1" source="V6hN7ZL_rzsTTCwFuk5g-1" target="V6hN7ZL_rzsTTCwFuk5g-6" edge="1">
          <mxGeometry relative="1" as="geometry" />
        </mxCell>
        <mxCell id="V6hN7ZL_rzsTTCwFuk5g-1" value="Распределить&amp;nbsp; элементы больше опорного справа, меньше опорного слева." style="rounded=1;whiteSpace=wrap;html=1;" parent="1" vertex="1">
          <mxGeometry x="600" y="400" width="160" height="60" as="geometry" />
        </mxCell>
        <mxCell id="V6hN7ZL_rzsTTCwFuk5g-20" style="edgeStyle=orthogonalEdgeStyle;rounded=0;orthogonalLoop=1;jettySize=auto;html=1;startArrow=none;" parent="1" source="V6hN7ZL_rzsTTCwFuk5g-4" target="V6hN7ZL_rzsTTCwFuk5g-3" edge="1">
          <mxGeometry relative="1" as="geometry" />
        </mxCell>
        <mxCell id="V6hN7ZL_rzsTTCwFuk5g-22" style="edgeStyle=orthogonalEdgeStyle;rounded=0;orthogonalLoop=1;jettySize=auto;html=1;" parent="1" source="V6hN7ZL_rzsTTCwFuk5g-2" target="V6hN7ZL_rzsTTCwFuk5g-4" edge="1">
          <mxGeometry relative="1" as="geometry" />
        </mxCell>
        <mxCell id="V6hN7ZL_rzsTTCwFuk5g-2" value="Начало" style="ellipse;whiteSpace=wrap;html=1;" parent="1" vertex="1">
          <mxGeometry x="240" y="100" width="120" height="80" as="geometry" />
        </mxCell>
        <mxCell id="V6hN7ZL_rzsTTCwFuk5g-3" value="Вызвать функцию qsort" style="rounded=1;whiteSpace=wrap;html=1;" parent="1" vertex="1">
          <mxGeometry x="240" y="310" width="120" height="60" as="geometry" />
        </mxCell>
        <mxCell id="V6hN7ZL_rzsTTCwFuk5g-16" style="edgeStyle=orthogonalEdgeStyle;rounded=0;orthogonalLoop=1;jettySize=auto;html=1;" parent="1" source="V6hN7ZL_rzsTTCwFuk5g-3" target="V6hN7ZL_rzsTTCwFuk5g-11" edge="1">
          <mxGeometry relative="1" as="geometry" />
        </mxCell>
        <mxCell id="V6hN7ZL_rzsTTCwFuk5g-13" style="edgeStyle=orthogonalEdgeStyle;rounded=0;orthogonalLoop=1;jettySize=auto;html=1;" parent="1" source="V6hN7ZL_rzsTTCwFuk5g-5" target="V6hN7ZL_rzsTTCwFuk5g-1" edge="1">
          <mxGeometry relative="1" as="geometry" />
        </mxCell>
        <mxCell id="V6hN7ZL_rzsTTCwFuk5g-5" value="Выбрать опорный элемент" style="rounded=1;whiteSpace=wrap;html=1;" parent="1" vertex="1">
          <mxGeometry x="430" y="400" width="120" height="60" as="geometry" />
        </mxCell>
        <mxCell id="V6hN7ZL_rzsTTCwFuk5g-8" style="edgeStyle=orthogonalEdgeStyle;rounded=0;orthogonalLoop=1;jettySize=auto;html=1;" parent="1" source="V6hN7ZL_rzsTTCwFuk5g-6" target="V6hN7ZL_rzsTTCwFuk5g-3" edge="1">
          <mxGeometry relative="1" as="geometry">
            <Array as="points">
              <mxPoint x="780" y="530" />
              <mxPoint x="780" y="350" />
            </Array>
          </mxGeometry>
        </mxCell>
        <mxCell id="V6hN7ZL_rzsTTCwFuk5g-15" style="edgeStyle=orthogonalEdgeStyle;rounded=0;orthogonalLoop=1;jettySize=auto;html=1;" parent="1" source="V6hN7ZL_rzsTTCwFuk5g-6" target="V6hN7ZL_rzsTTCwFuk5g-7" edge="1">
          <mxGeometry relative="1" as="geometry" />
        </mxCell>
        <mxCell id="V6hN7ZL_rzsTTCwFuk5g-6" value="Вызвать функцию для левой половины" style="rounded=1;whiteSpace=wrap;html=1;" parent="1" vertex="1">
          <mxGeometry x="600" y="500" width="160" height="60" as="geometry" />
        </mxCell>
        <mxCell id="V6hN7ZL_rzsTTCwFuk5g-9" style="edgeStyle=orthogonalEdgeStyle;rounded=0;orthogonalLoop=1;jettySize=auto;html=1;" parent="1" source="V6hN7ZL_rzsTTCwFuk5g-7" target="V6hN7ZL_rzsTTCwFuk5g-3" edge="1">
          <mxGeometry relative="1" as="geometry">
            <Array as="points">
              <mxPoint x="800" y="650" />
              <mxPoint x="800" y="330" />
            </Array>
          </mxGeometry>
        </mxCell>
        <mxCell id="V6hN7ZL_rzsTTCwFuk5g-7" value="Вызвать функцию для правой половины" style="rounded=1;whiteSpace=wrap;html=1;" parent="1" vertex="1">
          <mxGeometry x="600" y="620" width="160" height="60" as="geometry" />
        </mxCell>
        <mxCell id="V6hN7ZL_rzsTTCwFuk5g-12" value="Да" style="edgeStyle=orthogonalEdgeStyle;rounded=0;orthogonalLoop=1;jettySize=auto;html=1;exitX=1;exitY=0.5;exitDx=0;exitDy=0;" parent="1" source="V6hN7ZL_rzsTTCwFuk5g-11" target="V6hN7ZL_rzsTTCwFuk5g-5" edge="1">
          <mxGeometry relative="1" as="geometry" />
        </mxCell>
        <mxCell id="V6hN7ZL_rzsTTCwFuk5g-18" value="Нет" style="edgeStyle=orthogonalEdgeStyle;rounded=0;orthogonalLoop=1;jettySize=auto;html=1;" parent="1" source="V6hN7ZL_rzsTTCwFuk5g-11" target="V6hN7ZL_rzsTTCwFuk5g-17" edge="1">
          <mxGeometry relative="1" as="geometry" />
        </mxCell>
        <mxCell id="V6hN7ZL_rzsTTCwFuk5g-11" value="left &amp;lt; rigth" style="rhombus;whiteSpace=wrap;html=1;" parent="1" vertex="1">
          <mxGeometry x="240" y="400" width="120" height="60" as="geometry" />
        </mxCell>
        <mxCell id="V6hN7ZL_rzsTTCwFuk5g-17" value="Конец" style="ellipse;whiteSpace=wrap;html=1;" parent="1" vertex="1">
          <mxGeometry x="240" y="510" width="120" height="80" as="geometry" />
        </mxCell>
        <mxCell id="V6hN7ZL_rzsTTCwFuk5g-4" value="Задать: &lt;br&gt;array&lt;br&gt;left&lt;br&gt;rigth" style="shape=parallelogram;perimeter=parallelogramPerimeter;whiteSpace=wrap;html=1;fixedSize=1;" parent="1" vertex="1">
          <mxGeometry x="240" y="210" width="120" height="60" as="geometry" />
        </mxCell>
        <mxCell id="dXL0R2l00EBXDBXIZpM--19" style="edgeStyle=orthogonalEdgeStyle;rounded=0;orthogonalLoop=1;jettySize=auto;html=1;" edge="1" parent="1" source="dXL0R2l00EBXDBXIZpM--1" target="dXL0R2l00EBXDBXIZpM--2">
          <mxGeometry relative="1" as="geometry" />
        </mxCell>
        <mxCell id="dXL0R2l00EBXDBXIZpM--1" value="Начало" style="ellipse;whiteSpace=wrap;html=1;" vertex="1" parent="1">
          <mxGeometry x="400" y="-960" width="120" height="40" as="geometry" />
        </mxCell>
        <mxCell id="dXL0R2l00EBXDBXIZpM--20" style="edgeStyle=orthogonalEdgeStyle;rounded=0;orthogonalLoop=1;jettySize=auto;html=1;" edge="1" parent="1" source="dXL0R2l00EBXDBXIZpM--2" target="dXL0R2l00EBXDBXIZpM--3">
          <mxGeometry relative="1" as="geometry" />
        </mxCell>
        <mxCell id="dXL0R2l00EBXDBXIZpM--2" value="Получить: &lt;br&gt;array&lt;br&gt;left&lt;br&gt;rigth" style="shape=parallelogram;perimeter=parallelogramPerimeter;whiteSpace=wrap;html=1;fixedSize=1;" vertex="1" parent="1">
          <mxGeometry x="400" y="-880" width="120" height="80" as="geometry" />
        </mxCell>
        <mxCell id="dXL0R2l00EBXDBXIZpM--21" style="edgeStyle=orthogonalEdgeStyle;rounded=0;orthogonalLoop=1;jettySize=auto;html=1;" edge="1" parent="1" source="dXL0R2l00EBXDBXIZpM--3" target="dXL0R2l00EBXDBXIZpM--5">
          <mxGeometry relative="1" as="geometry" />
        </mxCell>
        <mxCell id="dXL0R2l00EBXDBXIZpM--3" value="Выбрать опорный элемент и задать начальные i и j" style="rounded=1;whiteSpace=wrap;html=1;" vertex="1" parent="1">
          <mxGeometry x="400" y="-760" width="120" height="80" as="geometry" />
        </mxCell>
        <mxCell id="dXL0R2l00EBXDBXIZpM--13" style="edgeStyle=orthogonalEdgeStyle;rounded=0;orthogonalLoop=1;jettySize=auto;html=1;" edge="1" parent="1" source="dXL0R2l00EBXDBXIZpM--4" target="dXL0R2l00EBXDBXIZpM--6">
          <mxGeometry relative="1" as="geometry">
            <Array as="points">
              <mxPoint x="820" y="-640" />
              <mxPoint x="620" y="-640" />
            </Array>
          </mxGeometry>
        </mxCell>
        <mxCell id="dXL0R2l00EBXDBXIZpM--4" value="Увеличить i" style="rounded=1;whiteSpace=wrap;html=1;" vertex="1" parent="1">
          <mxGeometry x="760" y="-600" width="120" height="40" as="geometry" />
        </mxCell>
        <mxCell id="dXL0R2l00EBXDBXIZpM--14" style="edgeStyle=orthogonalEdgeStyle;rounded=0;orthogonalLoop=1;jettySize=auto;html=1;entryX=0;entryY=0.5;entryDx=0;entryDy=0;" edge="1" parent="1" source="dXL0R2l00EBXDBXIZpM--5" target="dXL0R2l00EBXDBXIZpM--6">
          <mxGeometry relative="1" as="geometry" />
        </mxCell>
        <mxCell id="dXL0R2l00EBXDBXIZpM--23" style="edgeStyle=orthogonalEdgeStyle;rounded=0;orthogonalLoop=1;jettySize=auto;html=1;" edge="1" parent="1" source="dXL0R2l00EBXDBXIZpM--5" target="dXL0R2l00EBXDBXIZpM--22">
          <mxGeometry relative="1" as="geometry" />
        </mxCell>
        <mxCell id="dXL0R2l00EBXDBXIZpM--5" value="i &amp;lt;= j" style="rhombus;whiteSpace=wrap;html=1;" vertex="1" parent="1">
          <mxGeometry x="400" y="-640" width="120" height="40" as="geometry" />
        </mxCell>
        <mxCell id="dXL0R2l00EBXDBXIZpM--9" style="edgeStyle=orthogonalEdgeStyle;rounded=0;orthogonalLoop=1;jettySize=auto;html=1;" edge="1" parent="1" source="dXL0R2l00EBXDBXIZpM--6" target="dXL0R2l00EBXDBXIZpM--4">
          <mxGeometry relative="1" as="geometry" />
        </mxCell>
        <mxCell id="dXL0R2l00EBXDBXIZpM--15" style="edgeStyle=orthogonalEdgeStyle;rounded=0;orthogonalLoop=1;jettySize=auto;html=1;entryX=0;entryY=0.5;entryDx=0;entryDy=0;" edge="1" parent="1" source="dXL0R2l00EBXDBXIZpM--6" target="dXL0R2l00EBXDBXIZpM--7">
          <mxGeometry relative="1" as="geometry">
            <Array as="points">
              <mxPoint x="620" y="-540" />
              <mxPoint x="540" y="-540" />
              <mxPoint x="540" y="-460" />
            </Array>
          </mxGeometry>
        </mxCell>
        <mxCell id="dXL0R2l00EBXDBXIZpM--6" value="array[i] &amp;lt; опорного" style="rhombus;whiteSpace=wrap;html=1;" vertex="1" parent="1">
          <mxGeometry x="560" y="-600" width="120" height="40" as="geometry" />
        </mxCell>
        <mxCell id="dXL0R2l00EBXDBXIZpM--10" style="edgeStyle=orthogonalEdgeStyle;rounded=0;orthogonalLoop=1;jettySize=auto;html=1;" edge="1" parent="1" source="dXL0R2l00EBXDBXIZpM--7" target="dXL0R2l00EBXDBXIZpM--8">
          <mxGeometry relative="1" as="geometry" />
        </mxCell>
        <mxCell id="dXL0R2l00EBXDBXIZpM--17" style="edgeStyle=orthogonalEdgeStyle;rounded=0;orthogonalLoop=1;jettySize=auto;html=1;" edge="1" parent="1" source="dXL0R2l00EBXDBXIZpM--7" target="dXL0R2l00EBXDBXIZpM--16">
          <mxGeometry relative="1" as="geometry" />
        </mxCell>
        <mxCell id="dXL0R2l00EBXDBXIZpM--7" value="array[j] &amp;gt; опорного" style="rhombus;whiteSpace=wrap;html=1;" vertex="1" parent="1">
          <mxGeometry x="560" y="-480" width="120" height="40" as="geometry" />
        </mxCell>
        <mxCell id="dXL0R2l00EBXDBXIZpM--12" style="edgeStyle=orthogonalEdgeStyle;rounded=0;orthogonalLoop=1;jettySize=auto;html=1;" edge="1" parent="1" source="dXL0R2l00EBXDBXIZpM--8" target="dXL0R2l00EBXDBXIZpM--7">
          <mxGeometry relative="1" as="geometry">
            <Array as="points">
              <mxPoint x="820" y="-520" />
              <mxPoint x="620" y="-520" />
            </Array>
          </mxGeometry>
        </mxCell>
        <mxCell id="dXL0R2l00EBXDBXIZpM--8" value="Увеличить j" style="rounded=1;whiteSpace=wrap;html=1;" vertex="1" parent="1">
          <mxGeometry x="760" y="-480" width="120" height="40" as="geometry" />
        </mxCell>
        <mxCell id="dXL0R2l00EBXDBXIZpM--24" style="edgeStyle=orthogonalEdgeStyle;rounded=0;orthogonalLoop=1;jettySize=auto;html=1;" edge="1" parent="1" source="dXL0R2l00EBXDBXIZpM--16" target="dXL0R2l00EBXDBXIZpM--22">
          <mxGeometry relative="1" as="geometry" />
        </mxCell>
        <mxCell id="dXL0R2l00EBXDBXIZpM--16" value="Поменять array[i] и array[j]" style="rounded=1;whiteSpace=wrap;html=1;" vertex="1" parent="1">
          <mxGeometry x="560" y="-400" width="120" height="40" as="geometry" />
        </mxCell>
        <mxCell id="dXL0R2l00EBXDBXIZpM--26" style="edgeStyle=orthogonalEdgeStyle;rounded=0;orthogonalLoop=1;jettySize=auto;html=1;entryX=0.5;entryY=0;entryDx=0;entryDy=0;" edge="1" parent="1" source="dXL0R2l00EBXDBXIZpM--22" target="dXL0R2l00EBXDBXIZpM--25">
          <mxGeometry relative="1" as="geometry" />
        </mxCell>
        <mxCell id="dXL0R2l00EBXDBXIZpM--22" value="Вернуть j" style="rounded=1;whiteSpace=wrap;html=1;" vertex="1" parent="1">
          <mxGeometry x="400" y="-320" width="120" height="40" as="geometry" />
        </mxCell>
        <mxCell id="dXL0R2l00EBXDBXIZpM--25" value="Конец" style="ellipse;whiteSpace=wrap;html=1;" vertex="1" parent="1">
          <mxGeometry x="400" y="-240" width="120" height="40" as="geometry" />
        </mxCell>
      </root>
    </mxGraphModel>
  </diagram>
  <diagram id="v4dScao50-TLB6IwzgoS" name="пошагово">
    <mxGraphModel dx="2031" dy="1117" grid="1" gridSize="10" guides="1" tooltips="1" connect="1" arrows="1" fold="1" page="1" pageScale="1" pageWidth="1169" pageHeight="827" math="0" shadow="0">
      <root>
        <mxCell id="zI0suIIj4OnqdVt1A8pc-0" />
        <mxCell id="zI0suIIj4OnqdVt1A8pc-1" parent="zI0suIIj4OnqdVt1A8pc-0" />
        <mxCell id="zI0suIIj4OnqdVt1A8pc-4" value="6" style="rounded=0;whiteSpace=wrap;html=1;" vertex="1" parent="zI0suIIj4OnqdVt1A8pc-1">
          <mxGeometry x="600" y="180" width="40" height="40" as="geometry" />
        </mxCell>
        <mxCell id="zI0suIIj4OnqdVt1A8pc-5" value="7" style="rounded=0;whiteSpace=wrap;html=1;" vertex="1" parent="zI0suIIj4OnqdVt1A8pc-1">
          <mxGeometry x="560" y="180" width="40" height="40" as="geometry" />
        </mxCell>
        <mxCell id="zI0suIIj4OnqdVt1A8pc-6" value="10" style="rounded=0;whiteSpace=wrap;html=1;" vertex="1" parent="zI0suIIj4OnqdVt1A8pc-1">
          <mxGeometry x="520" y="180" width="40" height="40" as="geometry" />
        </mxCell>
        <mxCell id="zI0suIIj4OnqdVt1A8pc-7" value="4" style="rounded=0;whiteSpace=wrap;html=1;" vertex="1" parent="zI0suIIj4OnqdVt1A8pc-1">
          <mxGeometry x="480" y="180" width="40" height="40" as="geometry" />
        </mxCell>
        <mxCell id="zI0suIIj4OnqdVt1A8pc-8" value="12" style="rounded=0;whiteSpace=wrap;html=1;" vertex="1" parent="zI0suIIj4OnqdVt1A8pc-1">
          <mxGeometry x="440" y="180" width="40" height="40" as="geometry" />
        </mxCell>
        <mxCell id="zI0suIIj4OnqdVt1A8pc-63" value="8" style="edgeStyle=orthogonalEdgeStyle;rounded=0;orthogonalLoop=1;jettySize=auto;html=1;dashed=1;startArrow=classic;startFill=1;" edge="1" parent="zI0suIIj4OnqdVt1A8pc-1" source="zI0suIIj4OnqdVt1A8pc-9" target="zI0suIIj4OnqdVt1A8pc-8">
          <mxGeometry relative="1" as="geometry" />
        </mxCell>
        <mxCell id="zI0suIIj4OnqdVt1A8pc-9" value="5" style="rounded=0;whiteSpace=wrap;html=1;" vertex="1" parent="zI0suIIj4OnqdVt1A8pc-1">
          <mxGeometry x="400" y="180" width="40" height="40" as="geometry" />
        </mxCell>
        <mxCell id="zI0suIIj4OnqdVt1A8pc-61" value="6" style="edgeStyle=orthogonalEdgeStyle;rounded=0;orthogonalLoop=1;jettySize=auto;html=1;dashed=1;startArrow=classic;startFill=1;" edge="1" parent="zI0suIIj4OnqdVt1A8pc-1" source="zI0suIIj4OnqdVt1A8pc-10" target="zI0suIIj4OnqdVt1A8pc-6">
          <mxGeometry relative="1" as="geometry">
            <Array as="points">
              <mxPoint x="380" y="120" />
              <mxPoint x="540" y="120" />
            </Array>
          </mxGeometry>
        </mxCell>
        <mxCell id="zI0suIIj4OnqdVt1A8pc-62" value="7" style="edgeStyle=orthogonalEdgeStyle;rounded=0;orthogonalLoop=1;jettySize=auto;html=1;startArrow=classic;startFill=1;strokeColor=#82b366;fillColor=#d5e8d4;strokeWidth=2;" edge="1" parent="zI0suIIj4OnqdVt1A8pc-1" source="zI0suIIj4OnqdVt1A8pc-10" target="zI0suIIj4OnqdVt1A8pc-7">
          <mxGeometry relative="1" as="geometry">
            <Array as="points">
              <mxPoint x="380" y="140" />
              <mxPoint x="500" y="140" />
            </Array>
          </mxGeometry>
        </mxCell>
        <mxCell id="zI0suIIj4OnqdVt1A8pc-10" value="8" style="rounded=0;whiteSpace=wrap;html=1;fillColor=#fff2cc;strokeColor=#d6b656;" vertex="1" parent="zI0suIIj4OnqdVt1A8pc-1">
          <mxGeometry x="360" y="180" width="40" height="40" as="geometry" />
        </mxCell>
        <mxCell id="zI0suIIj4OnqdVt1A8pc-60" value="5" style="edgeStyle=orthogonalEdgeStyle;rounded=0;orthogonalLoop=1;jettySize=auto;html=1;startArrow=classic;startFill=1;strokeColor=#82b366;fillColor=#d5e8d4;strokeWidth=2;" edge="1" parent="zI0suIIj4OnqdVt1A8pc-1" source="zI0suIIj4OnqdVt1A8pc-11" target="zI0suIIj4OnqdVt1A8pc-5">
          <mxGeometry relative="1" as="geometry">
            <Array as="points">
              <mxPoint x="340" y="100" />
              <mxPoint x="580" y="100" />
            </Array>
          </mxGeometry>
        </mxCell>
        <mxCell id="zI0suIIj4OnqdVt1A8pc-11" value="11" style="rounded=0;whiteSpace=wrap;html=1;" vertex="1" parent="zI0suIIj4OnqdVt1A8pc-1">
          <mxGeometry x="320" y="180" width="40" height="40" as="geometry" />
        </mxCell>
        <mxCell id="zI0suIIj4OnqdVt1A8pc-59" value="4" style="edgeStyle=orthogonalEdgeStyle;rounded=0;orthogonalLoop=1;jettySize=auto;html=1;dashed=1;startArrow=classic;startFill=1;" edge="1" parent="zI0suIIj4OnqdVt1A8pc-1" source="zI0suIIj4OnqdVt1A8pc-12" target="zI0suIIj4OnqdVt1A8pc-5">
          <mxGeometry relative="1" as="geometry">
            <Array as="points">
              <mxPoint x="300" y="80" />
              <mxPoint x="580" y="80" />
            </Array>
          </mxGeometry>
        </mxCell>
        <mxCell id="zI0suIIj4OnqdVt1A8pc-12" value="3" style="rounded=0;whiteSpace=wrap;html=1;" vertex="1" parent="zI0suIIj4OnqdVt1A8pc-1">
          <mxGeometry x="280" y="180" width="40" height="40" as="geometry" />
        </mxCell>
        <mxCell id="zI0suIIj4OnqdVt1A8pc-58" value="3" style="edgeStyle=orthogonalEdgeStyle;rounded=0;orthogonalLoop=1;jettySize=auto;html=1;startArrow=classic;startFill=1;dashed=1;" edge="1" parent="zI0suIIj4OnqdVt1A8pc-1" source="zI0suIIj4OnqdVt1A8pc-13" target="zI0suIIj4OnqdVt1A8pc-5">
          <mxGeometry relative="1" as="geometry">
            <Array as="points">
              <mxPoint x="260" y="60" />
              <mxPoint x="580" y="60" />
            </Array>
          </mxGeometry>
        </mxCell>
        <mxCell id="zI0suIIj4OnqdVt1A8pc-13" value="2" style="rounded=0;whiteSpace=wrap;html=1;" vertex="1" parent="zI0suIIj4OnqdVt1A8pc-1">
          <mxGeometry x="240" y="180" width="40" height="40" as="geometry" />
        </mxCell>
        <mxCell id="zI0suIIj4OnqdVt1A8pc-57" value="2" style="edgeStyle=orthogonalEdgeStyle;rounded=0;orthogonalLoop=1;jettySize=auto;html=1;startArrow=classic;startFill=1;fillColor=#d5e8d4;strokeColor=#82b366;strokeWidth=2;" edge="1" parent="zI0suIIj4OnqdVt1A8pc-1" source="zI0suIIj4OnqdVt1A8pc-14" target="zI0suIIj4OnqdVt1A8pc-4">
          <mxGeometry relative="1" as="geometry">
            <Array as="points">
              <mxPoint x="220" y="40" />
              <mxPoint x="620" y="40" />
            </Array>
          </mxGeometry>
        </mxCell>
        <mxCell id="zI0suIIj4OnqdVt1A8pc-14" value="9" style="rounded=0;whiteSpace=wrap;html=1;" vertex="1" parent="zI0suIIj4OnqdVt1A8pc-1">
          <mxGeometry x="200" y="180" width="40" height="40" as="geometry" />
        </mxCell>
        <mxCell id="zI0suIIj4OnqdVt1A8pc-54" value="1" style="edgeStyle=orthogonalEdgeStyle;rounded=0;orthogonalLoop=1;jettySize=auto;html=1;startArrow=classic;startFill=1;dashed=1;" edge="1" parent="zI0suIIj4OnqdVt1A8pc-1" source="zI0suIIj4OnqdVt1A8pc-15" target="zI0suIIj4OnqdVt1A8pc-4">
          <mxGeometry relative="1" as="geometry">
            <Array as="points">
              <mxPoint x="180" y="20" />
              <mxPoint x="620" y="20" />
            </Array>
          </mxGeometry>
        </mxCell>
        <mxCell id="zI0suIIj4OnqdVt1A8pc-15" value="1" style="rounded=0;whiteSpace=wrap;html=1;" vertex="1" parent="zI0suIIj4OnqdVt1A8pc-1">
          <mxGeometry x="160" y="180" width="40" height="40" as="geometry" />
        </mxCell>
        <mxCell id="zI0suIIj4OnqdVt1A8pc-65" value="9" style="rounded=0;whiteSpace=wrap;html=1;fillColor=#dae8fc;strokeColor=#6c8ebf;" vertex="1" parent="zI0suIIj4OnqdVt1A8pc-1">
          <mxGeometry x="600" y="220" width="40" height="40" as="geometry" />
        </mxCell>
        <mxCell id="zI0suIIj4OnqdVt1A8pc-66" value="11" style="rounded=0;whiteSpace=wrap;html=1;fillColor=#dae8fc;strokeColor=#6c8ebf;" vertex="1" parent="zI0suIIj4OnqdVt1A8pc-1">
          <mxGeometry x="560" y="220" width="40" height="40" as="geometry" />
        </mxCell>
        <mxCell id="zI0suIIj4OnqdVt1A8pc-67" value="10" style="rounded=0;whiteSpace=wrap;html=1;fillColor=#dae8fc;strokeColor=#6c8ebf;" vertex="1" parent="zI0suIIj4OnqdVt1A8pc-1">
          <mxGeometry x="520" y="220" width="40" height="40" as="geometry" />
        </mxCell>
        <mxCell id="zI0suIIj4OnqdVt1A8pc-68" value="8" style="rounded=0;whiteSpace=wrap;html=1;fillColor=#dae8fc;strokeColor=#6c8ebf;" vertex="1" parent="zI0suIIj4OnqdVt1A8pc-1">
          <mxGeometry x="480" y="220" width="40" height="40" as="geometry" />
        </mxCell>
        <mxCell id="zI0suIIj4OnqdVt1A8pc-69" value="12" style="rounded=0;whiteSpace=wrap;html=1;fillColor=#dae8fc;strokeColor=#6c8ebf;" vertex="1" parent="zI0suIIj4OnqdVt1A8pc-1">
          <mxGeometry x="440" y="220" width="40" height="40" as="geometry" />
        </mxCell>
        <mxCell id="zI0suIIj4OnqdVt1A8pc-70" value="5" style="rounded=0;whiteSpace=wrap;html=1;fillColor=#f8cecc;strokeColor=#b85450;" vertex="1" parent="zI0suIIj4OnqdVt1A8pc-1">
          <mxGeometry x="400" y="220" width="40" height="40" as="geometry" />
        </mxCell>
        <mxCell id="zI0suIIj4OnqdVt1A8pc-71" value="4" style="rounded=0;whiteSpace=wrap;html=1;fillColor=#dae8fc;strokeColor=#6c8ebf;" vertex="1" parent="zI0suIIj4OnqdVt1A8pc-1">
          <mxGeometry x="360" y="220" width="40" height="40" as="geometry" />
        </mxCell>
        <mxCell id="zI0suIIj4OnqdVt1A8pc-72" value="7" style="rounded=0;whiteSpace=wrap;html=1;fillColor=#dae8fc;strokeColor=#6c8ebf;" vertex="1" parent="zI0suIIj4OnqdVt1A8pc-1">
          <mxGeometry x="320" y="220" width="40" height="40" as="geometry" />
        </mxCell>
        <mxCell id="zI0suIIj4OnqdVt1A8pc-73" value="3" style="rounded=0;whiteSpace=wrap;html=1;fillColor=#dae8fc;strokeColor=#6c8ebf;" vertex="1" parent="zI0suIIj4OnqdVt1A8pc-1">
          <mxGeometry x="280" y="220" width="40" height="40" as="geometry" />
        </mxCell>
        <mxCell id="zI0suIIj4OnqdVt1A8pc-74" value="2" style="rounded=0;whiteSpace=wrap;html=1;fillColor=#dae8fc;strokeColor=#6c8ebf;" vertex="1" parent="zI0suIIj4OnqdVt1A8pc-1">
          <mxGeometry x="240" y="220" width="40" height="40" as="geometry" />
        </mxCell>
        <mxCell id="zI0suIIj4OnqdVt1A8pc-75" value="6" style="rounded=0;whiteSpace=wrap;html=1;fillColor=#dae8fc;strokeColor=#6c8ebf;" vertex="1" parent="zI0suIIj4OnqdVt1A8pc-1">
          <mxGeometry x="200" y="220" width="40" height="40" as="geometry" />
        </mxCell>
        <mxCell id="zI0suIIj4OnqdVt1A8pc-76" value="1" style="rounded=0;whiteSpace=wrap;html=1;fillColor=#dae8fc;strokeColor=#6c8ebf;" vertex="1" parent="zI0suIIj4OnqdVt1A8pc-1">
          <mxGeometry x="160" y="220" width="40" height="40" as="geometry" />
        </mxCell>
        <mxCell id="zI0suIIj4OnqdVt1A8pc-77" value="9" style="rounded=0;whiteSpace=wrap;html=1;" vertex="1" parent="zI0suIIj4OnqdVt1A8pc-1">
          <mxGeometry x="635" y="380" width="40" height="40" as="geometry" />
        </mxCell>
        <mxCell id="zI0suIIj4OnqdVt1A8pc-78" value="11" style="rounded=0;whiteSpace=wrap;html=1;" vertex="1" parent="zI0suIIj4OnqdVt1A8pc-1">
          <mxGeometry x="595" y="380" width="40" height="40" as="geometry" />
        </mxCell>
        <mxCell id="zI0suIIj4OnqdVt1A8pc-79" value="10" style="rounded=0;whiteSpace=wrap;html=1;fillColor=#fff2cc;strokeColor=#d6b656;" vertex="1" parent="zI0suIIj4OnqdVt1A8pc-1">
          <mxGeometry x="555" y="380" width="40" height="40" as="geometry" />
        </mxCell>
        <mxCell id="zI0suIIj4OnqdVt1A8pc-136" value="2" style="edgeStyle=orthogonalEdgeStyle;rounded=0;orthogonalLoop=1;jettySize=auto;html=1;dashed=1;startArrow=classic;startFill=1;strokeWidth=1;" edge="1" parent="zI0suIIj4OnqdVt1A8pc-1" source="zI0suIIj4OnqdVt1A8pc-80" target="zI0suIIj4OnqdVt1A8pc-78">
          <mxGeometry relative="1" as="geometry">
            <Array as="points">
              <mxPoint x="535" y="350" />
              <mxPoint x="615" y="350" />
            </Array>
          </mxGeometry>
        </mxCell>
        <mxCell id="zI0suIIj4OnqdVt1A8pc-80" value="8" style="rounded=0;whiteSpace=wrap;html=1;" vertex="1" parent="zI0suIIj4OnqdVt1A8pc-1">
          <mxGeometry x="515" y="380" width="40" height="40" as="geometry" />
        </mxCell>
        <mxCell id="zI0suIIj4OnqdVt1A8pc-135" value="1" style="edgeStyle=orthogonalEdgeStyle;rounded=0;orthogonalLoop=1;jettySize=auto;html=1;startArrow=classic;startFill=1;strokeWidth=2;fillColor=#d5e8d4;strokeColor=#82b366;" edge="1" parent="zI0suIIj4OnqdVt1A8pc-1" source="zI0suIIj4OnqdVt1A8pc-81" target="zI0suIIj4OnqdVt1A8pc-77">
          <mxGeometry relative="1" as="geometry">
            <Array as="points">
              <mxPoint x="495" y="330" />
              <mxPoint x="655" y="330" />
            </Array>
          </mxGeometry>
        </mxCell>
        <mxCell id="zI0suIIj4OnqdVt1A8pc-81" value="12" style="rounded=0;whiteSpace=wrap;html=1;" vertex="1" parent="zI0suIIj4OnqdVt1A8pc-1">
          <mxGeometry x="475" y="380" width="40" height="40" as="geometry" />
        </mxCell>
        <mxCell id="zI0suIIj4OnqdVt1A8pc-82" value="5" style="rounded=0;whiteSpace=wrap;html=1;" vertex="1" parent="zI0suIIj4OnqdVt1A8pc-1">
          <mxGeometry x="345" y="380" width="40" height="40" as="geometry" />
        </mxCell>
        <mxCell id="zI0suIIj4OnqdVt1A8pc-83" value="4" style="rounded=0;whiteSpace=wrap;html=1;" vertex="1" parent="zI0suIIj4OnqdVt1A8pc-1">
          <mxGeometry x="305" y="380" width="40" height="40" as="geometry" />
        </mxCell>
        <mxCell id="zI0suIIj4OnqdVt1A8pc-84" value="7" style="rounded=0;whiteSpace=wrap;html=1;" vertex="1" parent="zI0suIIj4OnqdVt1A8pc-1">
          <mxGeometry x="265" y="380" width="40" height="40" as="geometry" />
        </mxCell>
        <mxCell id="zI0suIIj4OnqdVt1A8pc-85" value="3" style="rounded=0;whiteSpace=wrap;html=1;fillColor=#fff2cc;strokeColor=#d6b656;" vertex="1" parent="zI0suIIj4OnqdVt1A8pc-1">
          <mxGeometry x="225" y="380" width="40" height="40" as="geometry" />
        </mxCell>
        <mxCell id="zI0suIIj4OnqdVt1A8pc-86" value="2" style="rounded=0;whiteSpace=wrap;html=1;" vertex="1" parent="zI0suIIj4OnqdVt1A8pc-1">
          <mxGeometry x="185" y="380" width="40" height="40" as="geometry" />
        </mxCell>
        <mxCell id="zI0suIIj4OnqdVt1A8pc-102" value="2" style="edgeStyle=orthogonalEdgeStyle;rounded=0;orthogonalLoop=1;jettySize=auto;html=1;dashed=1;startArrow=classic;startFill=1;strokeWidth=1;" edge="1" parent="zI0suIIj4OnqdVt1A8pc-1" source="zI0suIIj4OnqdVt1A8pc-87" target="zI0suIIj4OnqdVt1A8pc-83">
          <mxGeometry relative="1" as="geometry">
            <Array as="points">
              <mxPoint x="165" y="320" />
              <mxPoint x="325" y="320" />
            </Array>
          </mxGeometry>
        </mxCell>
        <mxCell id="zI0suIIj4OnqdVt1A8pc-103" value="3" style="edgeStyle=orthogonalEdgeStyle;rounded=0;orthogonalLoop=1;jettySize=auto;html=1;dashed=1;startArrow=classic;startFill=1;strokeWidth=1;" edge="1" parent="zI0suIIj4OnqdVt1A8pc-1" source="zI0suIIj4OnqdVt1A8pc-87" target="zI0suIIj4OnqdVt1A8pc-84">
          <mxGeometry relative="1" as="geometry">
            <Array as="points">
              <mxPoint x="165" y="340" />
              <mxPoint x="285" y="340" />
            </Array>
          </mxGeometry>
        </mxCell>
        <mxCell id="zI0suIIj4OnqdVt1A8pc-104" value="4" style="edgeStyle=orthogonalEdgeStyle;rounded=0;orthogonalLoop=1;jettySize=auto;html=1;startArrow=classic;startFill=1;strokeWidth=2;strokeColor=#82b366;fillColor=#d5e8d4;" edge="1" parent="zI0suIIj4OnqdVt1A8pc-1" source="zI0suIIj4OnqdVt1A8pc-87" target="zI0suIIj4OnqdVt1A8pc-85">
          <mxGeometry relative="1" as="geometry">
            <Array as="points">
              <mxPoint x="165" y="360" />
              <mxPoint x="245" y="360" />
            </Array>
          </mxGeometry>
        </mxCell>
        <mxCell id="zI0suIIj4OnqdVt1A8pc-87" value="6" style="rounded=0;whiteSpace=wrap;html=1;" vertex="1" parent="zI0suIIj4OnqdVt1A8pc-1">
          <mxGeometry x="145" y="380" width="40" height="40" as="geometry" />
        </mxCell>
        <mxCell id="zI0suIIj4OnqdVt1A8pc-101" value="1" style="edgeStyle=orthogonalEdgeStyle;rounded=0;orthogonalLoop=1;jettySize=auto;html=1;startArrow=classic;startFill=1;strokeWidth=1;dashed=1;" edge="1" parent="zI0suIIj4OnqdVt1A8pc-1" source="zI0suIIj4OnqdVt1A8pc-88" target="zI0suIIj4OnqdVt1A8pc-82">
          <mxGeometry relative="1" as="geometry">
            <Array as="points">
              <mxPoint x="125" y="300" />
              <mxPoint x="365" y="300" />
            </Array>
          </mxGeometry>
        </mxCell>
        <mxCell id="zI0suIIj4OnqdVt1A8pc-88" value="1" style="rounded=0;whiteSpace=wrap;html=1;" vertex="1" parent="zI0suIIj4OnqdVt1A8pc-1">
          <mxGeometry x="105" y="380" width="40" height="40" as="geometry" />
        </mxCell>
        <mxCell id="zI0suIIj4OnqdVt1A8pc-89" value="12" style="rounded=0;whiteSpace=wrap;html=1;fillColor=#dae8fc;strokeColor=#6c8ebf;" vertex="1" parent="zI0suIIj4OnqdVt1A8pc-1">
          <mxGeometry x="635" y="420" width="40" height="40" as="geometry" />
        </mxCell>
        <mxCell id="zI0suIIj4OnqdVt1A8pc-90" value="11" style="rounded=0;whiteSpace=wrap;html=1;fillColor=#dae8fc;strokeColor=#6c8ebf;" vertex="1" parent="zI0suIIj4OnqdVt1A8pc-1">
          <mxGeometry x="595" y="420" width="40" height="40" as="geometry" />
        </mxCell>
        <mxCell id="zI0suIIj4OnqdVt1A8pc-91" value="10" style="rounded=0;whiteSpace=wrap;html=1;fillColor=#f8cecc;strokeColor=#b85450;" vertex="1" parent="zI0suIIj4OnqdVt1A8pc-1">
          <mxGeometry x="555" y="420" width="40" height="40" as="geometry" />
        </mxCell>
        <mxCell id="zI0suIIj4OnqdVt1A8pc-92" value="8" style="rounded=0;whiteSpace=wrap;html=1;fillColor=#dae8fc;strokeColor=#6c8ebf;" vertex="1" parent="zI0suIIj4OnqdVt1A8pc-1">
          <mxGeometry x="515" y="420" width="40" height="40" as="geometry" />
        </mxCell>
        <mxCell id="zI0suIIj4OnqdVt1A8pc-93" value="9" style="rounded=0;whiteSpace=wrap;html=1;fillColor=#dae8fc;strokeColor=#6c8ebf;" vertex="1" parent="zI0suIIj4OnqdVt1A8pc-1">
          <mxGeometry x="475" y="420" width="40" height="40" as="geometry" />
        </mxCell>
        <mxCell id="zI0suIIj4OnqdVt1A8pc-94" value="5" style="rounded=0;whiteSpace=wrap;html=1;fillColor=#dae8fc;strokeColor=#6c8ebf;" vertex="1" parent="zI0suIIj4OnqdVt1A8pc-1">
          <mxGeometry x="345" y="420" width="40" height="40" as="geometry" />
        </mxCell>
        <mxCell id="zI0suIIj4OnqdVt1A8pc-95" value="4" style="rounded=0;whiteSpace=wrap;html=1;fillColor=#dae8fc;strokeColor=#6c8ebf;" vertex="1" parent="zI0suIIj4OnqdVt1A8pc-1">
          <mxGeometry x="305" y="420" width="40" height="40" as="geometry" />
        </mxCell>
        <mxCell id="zI0suIIj4OnqdVt1A8pc-96" value="7" style="rounded=0;whiteSpace=wrap;html=1;fillColor=#dae8fc;strokeColor=#6c8ebf;" vertex="1" parent="zI0suIIj4OnqdVt1A8pc-1">
          <mxGeometry x="265" y="420" width="40" height="40" as="geometry" />
        </mxCell>
        <mxCell id="zI0suIIj4OnqdVt1A8pc-97" value="6" style="rounded=0;whiteSpace=wrap;html=1;fillColor=#dae8fc;strokeColor=#6c8ebf;" vertex="1" parent="zI0suIIj4OnqdVt1A8pc-1">
          <mxGeometry x="225" y="420" width="40" height="40" as="geometry" />
        </mxCell>
        <mxCell id="zI0suIIj4OnqdVt1A8pc-98" value="2" style="rounded=0;whiteSpace=wrap;html=1;fillColor=#f8cecc;strokeColor=#b85450;" vertex="1" parent="zI0suIIj4OnqdVt1A8pc-1">
          <mxGeometry x="185" y="420" width="40" height="40" as="geometry" />
        </mxCell>
        <mxCell id="zI0suIIj4OnqdVt1A8pc-99" value="3" style="rounded=0;whiteSpace=wrap;html=1;fillColor=#dae8fc;strokeColor=#6c8ebf;" vertex="1" parent="zI0suIIj4OnqdVt1A8pc-1">
          <mxGeometry x="145" y="420" width="40" height="40" as="geometry" />
        </mxCell>
        <mxCell id="zI0suIIj4OnqdVt1A8pc-100" value="1" style="rounded=0;whiteSpace=wrap;html=1;fillColor=#dae8fc;strokeColor=#6c8ebf;" vertex="1" parent="zI0suIIj4OnqdVt1A8pc-1">
          <mxGeometry x="105" y="420" width="40" height="40" as="geometry" />
        </mxCell>
        <mxCell id="zI0suIIj4OnqdVt1A8pc-112" value="2" style="edgeStyle=orthogonalEdgeStyle;rounded=0;orthogonalLoop=1;jettySize=auto;html=1;startArrow=classic;startFill=1;strokeWidth=2;fillColor=#d5e8d4;strokeColor=#82b366;" edge="1" parent="zI0suIIj4OnqdVt1A8pc-1" source="zI0suIIj4OnqdVt1A8pc-105" target="zI0suIIj4OnqdVt1A8pc-106">
          <mxGeometry relative="1" as="geometry" />
        </mxCell>
        <mxCell id="zI0suIIj4OnqdVt1A8pc-105" value="2" style="rounded=0;whiteSpace=wrap;html=1;" vertex="1" parent="zI0suIIj4OnqdVt1A8pc-1">
          <mxGeometry x="160" y="539.97" width="40" height="40" as="geometry" />
        </mxCell>
        <mxCell id="zI0suIIj4OnqdVt1A8pc-106" value="3" style="rounded=0;whiteSpace=wrap;html=1;fillColor=#fff2cc;strokeColor=#d6b656;" vertex="1" parent="zI0suIIj4OnqdVt1A8pc-1">
          <mxGeometry x="120" y="539.97" width="40" height="40" as="geometry" />
        </mxCell>
        <mxCell id="zI0suIIj4OnqdVt1A8pc-111" value="1" style="edgeStyle=orthogonalEdgeStyle;rounded=0;orthogonalLoop=1;jettySize=auto;html=1;startArrow=classic;startFill=1;strokeWidth=1;dashed=1;" edge="1" parent="zI0suIIj4OnqdVt1A8pc-1" source="zI0suIIj4OnqdVt1A8pc-107" target="zI0suIIj4OnqdVt1A8pc-105">
          <mxGeometry relative="1" as="geometry">
            <Array as="points">
              <mxPoint x="100" y="499.97" />
              <mxPoint x="180" y="499.97" />
            </Array>
          </mxGeometry>
        </mxCell>
        <mxCell id="zI0suIIj4OnqdVt1A8pc-107" value="1" style="rounded=0;whiteSpace=wrap;html=1;" vertex="1" parent="zI0suIIj4OnqdVt1A8pc-1">
          <mxGeometry x="80" y="539.97" width="40" height="40" as="geometry" />
        </mxCell>
        <mxCell id="zI0suIIj4OnqdVt1A8pc-108" value="3" style="rounded=0;whiteSpace=wrap;html=1;fillColor=#dae8fc;strokeColor=#6c8ebf;" vertex="1" parent="zI0suIIj4OnqdVt1A8pc-1">
          <mxGeometry x="160" y="579.97" width="40" height="40" as="geometry" />
        </mxCell>
        <mxCell id="zI0suIIj4OnqdVt1A8pc-109" value="2" style="rounded=0;whiteSpace=wrap;html=1;fillColor=#f8cecc;strokeColor=#b85450;" vertex="1" parent="zI0suIIj4OnqdVt1A8pc-1">
          <mxGeometry x="120" y="579.97" width="40" height="40" as="geometry" />
        </mxCell>
        <mxCell id="zI0suIIj4OnqdVt1A8pc-110" value="1" style="rounded=0;whiteSpace=wrap;html=1;fillColor=#dae8fc;strokeColor=#6c8ebf;" vertex="1" parent="zI0suIIj4OnqdVt1A8pc-1">
          <mxGeometry x="80" y="579.97" width="40" height="40" as="geometry" />
        </mxCell>
        <mxCell id="zI0suIIj4OnqdVt1A8pc-113" value="5" style="rounded=0;whiteSpace=wrap;html=1;" vertex="1" parent="zI0suIIj4OnqdVt1A8pc-1">
          <mxGeometry x="365" y="539.97" width="40" height="40" as="geometry" />
        </mxCell>
        <mxCell id="zI0suIIj4OnqdVt1A8pc-114" value="4" style="rounded=0;whiteSpace=wrap;html=1;" vertex="1" parent="zI0suIIj4OnqdVt1A8pc-1">
          <mxGeometry x="325" y="539.97" width="40" height="40" as="geometry" />
        </mxCell>
        <mxCell id="zI0suIIj4OnqdVt1A8pc-122" value="2" style="edgeStyle=orthogonalEdgeStyle;rounded=0;orthogonalLoop=1;jettySize=auto;html=1;startArrow=classic;startFill=1;strokeWidth=2;fillColor=#d5e8d4;strokeColor=#82b366;" edge="1" parent="zI0suIIj4OnqdVt1A8pc-1" source="zI0suIIj4OnqdVt1A8pc-115" target="zI0suIIj4OnqdVt1A8pc-113">
          <mxGeometry relative="1" as="geometry">
            <Array as="points">
              <mxPoint x="305" y="519.97" />
              <mxPoint x="385" y="519.97" />
            </Array>
          </mxGeometry>
        </mxCell>
        <mxCell id="zI0suIIj4OnqdVt1A8pc-115" value="7" style="rounded=0;whiteSpace=wrap;html=1;fillColor=#fff2cc;strokeColor=#d6b656;" vertex="1" parent="zI0suIIj4OnqdVt1A8pc-1">
          <mxGeometry x="285" y="539.97" width="40" height="40" as="geometry" />
        </mxCell>
        <mxCell id="zI0suIIj4OnqdVt1A8pc-121" value="1" style="edgeStyle=orthogonalEdgeStyle;rounded=0;orthogonalLoop=1;jettySize=auto;html=1;startArrow=classic;startFill=1;strokeWidth=1;dashed=1;" edge="1" parent="zI0suIIj4OnqdVt1A8pc-1" source="zI0suIIj4OnqdVt1A8pc-116" target="zI0suIIj4OnqdVt1A8pc-113">
          <mxGeometry relative="1" as="geometry">
            <Array as="points">
              <mxPoint x="265" y="499.97" />
              <mxPoint x="385" y="499.97" />
            </Array>
          </mxGeometry>
        </mxCell>
        <mxCell id="zI0suIIj4OnqdVt1A8pc-116" value="6" style="rounded=0;whiteSpace=wrap;html=1;" vertex="1" parent="zI0suIIj4OnqdVt1A8pc-1">
          <mxGeometry x="245" y="539.97" width="40" height="40" as="geometry" />
        </mxCell>
        <mxCell id="zI0suIIj4OnqdVt1A8pc-117" value="7" style="rounded=0;whiteSpace=wrap;html=1;fillColor=#dae8fc;strokeColor=#6c8ebf;" vertex="1" parent="zI0suIIj4OnqdVt1A8pc-1">
          <mxGeometry x="365" y="579.97" width="40" height="40" as="geometry" />
        </mxCell>
        <mxCell id="zI0suIIj4OnqdVt1A8pc-118" value="4" style="rounded=0;whiteSpace=wrap;html=1;fillColor=#f8cecc;strokeColor=#b85450;" vertex="1" parent="zI0suIIj4OnqdVt1A8pc-1">
          <mxGeometry x="325" y="579.97" width="40" height="40" as="geometry" />
        </mxCell>
        <mxCell id="zI0suIIj4OnqdVt1A8pc-119" value="5" style="rounded=0;whiteSpace=wrap;html=1;fillColor=#dae8fc;strokeColor=#6c8ebf;" vertex="1" parent="zI0suIIj4OnqdVt1A8pc-1">
          <mxGeometry x="285" y="579.97" width="40" height="40" as="geometry" />
        </mxCell>
        <mxCell id="zI0suIIj4OnqdVt1A8pc-120" value="6" style="rounded=0;whiteSpace=wrap;html=1;fillColor=#dae8fc;strokeColor=#6c8ebf;" vertex="1" parent="zI0suIIj4OnqdVt1A8pc-1">
          <mxGeometry x="245" y="579.97" width="40" height="40" as="geometry" />
        </mxCell>
        <mxCell id="zI0suIIj4OnqdVt1A8pc-123" value="4" style="rounded=0;whiteSpace=wrap;html=1;" vertex="1" parent="zI0suIIj4OnqdVt1A8pc-1">
          <mxGeometry x="325" y="679.97" width="40" height="40" as="geometry" />
        </mxCell>
        <mxCell id="zI0suIIj4OnqdVt1A8pc-124" value="5" style="rounded=0;whiteSpace=wrap;html=1;fillColor=#fff2cc;strokeColor=#d6b656;" vertex="1" parent="zI0suIIj4OnqdVt1A8pc-1">
          <mxGeometry x="285" y="679.97" width="40" height="40" as="geometry" />
        </mxCell>
        <mxCell id="zI0suIIj4OnqdVt1A8pc-129" value="1" style="edgeStyle=orthogonalEdgeStyle;rounded=0;orthogonalLoop=1;jettySize=auto;html=1;startArrow=classic;startFill=1;strokeWidth=2;fillColor=#d5e8d4;strokeColor=#82b366;" edge="1" parent="zI0suIIj4OnqdVt1A8pc-1" source="zI0suIIj4OnqdVt1A8pc-125" target="zI0suIIj4OnqdVt1A8pc-123">
          <mxGeometry relative="1" as="geometry">
            <Array as="points">
              <mxPoint x="265" y="659.97" />
              <mxPoint x="345" y="659.97" />
            </Array>
          </mxGeometry>
        </mxCell>
        <mxCell id="zI0suIIj4OnqdVt1A8pc-125" value="6" style="rounded=0;whiteSpace=wrap;html=1;" vertex="1" parent="zI0suIIj4OnqdVt1A8pc-1">
          <mxGeometry x="245" y="679.97" width="40" height="40" as="geometry" />
        </mxCell>
        <mxCell id="zI0suIIj4OnqdVt1A8pc-126" value="6" style="rounded=0;whiteSpace=wrap;html=1;fillColor=#dae8fc;strokeColor=#6c8ebf;" vertex="1" parent="zI0suIIj4OnqdVt1A8pc-1">
          <mxGeometry x="325" y="719.97" width="40" height="40" as="geometry" />
        </mxCell>
        <mxCell id="zI0suIIj4OnqdVt1A8pc-127" value="5" style="rounded=0;whiteSpace=wrap;html=1;fillColor=#f8cecc;strokeColor=#b85450;" vertex="1" parent="zI0suIIj4OnqdVt1A8pc-1">
          <mxGeometry x="285" y="719.97" width="40" height="40" as="geometry" />
        </mxCell>
        <mxCell id="zI0suIIj4OnqdVt1A8pc-128" value="4" style="rounded=0;whiteSpace=wrap;html=1;fillColor=#dae8fc;strokeColor=#6c8ebf;" vertex="1" parent="zI0suIIj4OnqdVt1A8pc-1">
          <mxGeometry x="245" y="719.97" width="40" height="40" as="geometry" />
        </mxCell>
        <mxCell id="zI0suIIj4OnqdVt1A8pc-130" value="5" style="rounded=0;whiteSpace=wrap;html=1;" vertex="1" parent="zI0suIIj4OnqdVt1A8pc-1">
          <mxGeometry x="285" y="799.97" width="40" height="40" as="geometry" />
        </mxCell>
        <mxCell id="zI0suIIj4OnqdVt1A8pc-134" value="1" style="edgeStyle=orthogonalEdgeStyle;rounded=0;orthogonalLoop=1;jettySize=auto;html=1;dashed=1;startArrow=classic;startFill=1;strokeWidth=1;" edge="1" parent="zI0suIIj4OnqdVt1A8pc-1" source="zI0suIIj4OnqdVt1A8pc-131" target="zI0suIIj4OnqdVt1A8pc-130">
          <mxGeometry relative="1" as="geometry" />
        </mxCell>
        <mxCell id="zI0suIIj4OnqdVt1A8pc-131" value="4" style="rounded=0;whiteSpace=wrap;html=1;fillColor=#fff2cc;strokeColor=#d6b656;" vertex="1" parent="zI0suIIj4OnqdVt1A8pc-1">
          <mxGeometry x="245" y="799.97" width="40" height="40" as="geometry" />
        </mxCell>
        <mxCell id="zI0suIIj4OnqdVt1A8pc-132" value="5" style="rounded=0;whiteSpace=wrap;html=1;fillColor=#dae8fc;strokeColor=#6c8ebf;" vertex="1" parent="zI0suIIj4OnqdVt1A8pc-1">
          <mxGeometry x="285" y="839.97" width="40" height="40" as="geometry" />
        </mxCell>
        <mxCell id="zI0suIIj4OnqdVt1A8pc-133" value="4" style="rounded=0;whiteSpace=wrap;html=1;fillColor=#f8cecc;strokeColor=#b85450;" vertex="1" parent="zI0suIIj4OnqdVt1A8pc-1">
          <mxGeometry x="245" y="839.97" width="40" height="40" as="geometry" />
        </mxCell>
        <mxCell id="zI0suIIj4OnqdVt1A8pc-137" value="10" style="rounded=0;whiteSpace=wrap;html=1;" vertex="1" parent="zI0suIIj4OnqdVt1A8pc-1">
          <mxGeometry x="530" y="539.97" width="40" height="40" as="geometry" />
        </mxCell>
        <mxCell id="zI0suIIj4OnqdVt1A8pc-145" value="2" style="edgeStyle=orthogonalEdgeStyle;rounded=0;orthogonalLoop=1;jettySize=auto;html=1;startArrow=classic;startFill=1;strokeWidth=2;fillColor=#d5e8d4;strokeColor=#82b366;" edge="1" parent="zI0suIIj4OnqdVt1A8pc-1" source="zI0suIIj4OnqdVt1A8pc-138" target="zI0suIIj4OnqdVt1A8pc-139">
          <mxGeometry relative="1" as="geometry" />
        </mxCell>
        <mxCell id="zI0suIIj4OnqdVt1A8pc-138" value="8" style="rounded=0;whiteSpace=wrap;html=1;fillColor=#fff2cc;strokeColor=#d6b656;" vertex="1" parent="zI0suIIj4OnqdVt1A8pc-1">
          <mxGeometry x="490" y="539.97" width="40" height="40" as="geometry" />
        </mxCell>
        <mxCell id="zI0suIIj4OnqdVt1A8pc-143" value="1" style="edgeStyle=orthogonalEdgeStyle;rounded=0;orthogonalLoop=1;jettySize=auto;html=1;dashed=1;startArrow=classic;startFill=1;strokeWidth=1;" edge="1" parent="zI0suIIj4OnqdVt1A8pc-1" source="zI0suIIj4OnqdVt1A8pc-139" target="zI0suIIj4OnqdVt1A8pc-137">
          <mxGeometry relative="1" as="geometry">
            <Array as="points">
              <mxPoint x="470" y="499.97" />
              <mxPoint x="550" y="499.97" />
            </Array>
          </mxGeometry>
        </mxCell>
        <mxCell id="zI0suIIj4OnqdVt1A8pc-139" value="9" style="rounded=0;whiteSpace=wrap;html=1;" vertex="1" parent="zI0suIIj4OnqdVt1A8pc-1">
          <mxGeometry x="450" y="539.97" width="40" height="40" as="geometry" />
        </mxCell>
        <mxCell id="zI0suIIj4OnqdVt1A8pc-140" value="10" style="rounded=0;whiteSpace=wrap;html=1;fillColor=#dae8fc;strokeColor=#6c8ebf;" vertex="1" parent="zI0suIIj4OnqdVt1A8pc-1">
          <mxGeometry x="530" y="579.97" width="40" height="40" as="geometry" />
        </mxCell>
        <mxCell id="zI0suIIj4OnqdVt1A8pc-141" value="9" style="rounded=0;whiteSpace=wrap;html=1;fillColor=#f8cecc;strokeColor=#b85450;" vertex="1" parent="zI0suIIj4OnqdVt1A8pc-1">
          <mxGeometry x="490" y="579.97" width="40" height="40" as="geometry" />
        </mxCell>
        <mxCell id="zI0suIIj4OnqdVt1A8pc-142" value="8" style="rounded=0;whiteSpace=wrap;html=1;fillColor=#dae8fc;strokeColor=#6c8ebf;" vertex="1" parent="zI0suIIj4OnqdVt1A8pc-1">
          <mxGeometry x="450" y="579.97" width="40" height="40" as="geometry" />
        </mxCell>
        <mxCell id="zI0suIIj4OnqdVt1A8pc-146" value="9" style="rounded=0;whiteSpace=wrap;html=1;" vertex="1" parent="zI0suIIj4OnqdVt1A8pc-1">
          <mxGeometry x="490" y="679.97" width="40" height="40" as="geometry" />
        </mxCell>
        <mxCell id="zI0suIIj4OnqdVt1A8pc-150" value="1" style="edgeStyle=orthogonalEdgeStyle;rounded=0;orthogonalLoop=1;jettySize=auto;html=1;dashed=1;startArrow=classic;startFill=1;strokeWidth=1;" edge="1" parent="zI0suIIj4OnqdVt1A8pc-1" source="zI0suIIj4OnqdVt1A8pc-147" target="zI0suIIj4OnqdVt1A8pc-146">
          <mxGeometry relative="1" as="geometry" />
        </mxCell>
        <mxCell id="zI0suIIj4OnqdVt1A8pc-147" value="8" style="rounded=0;whiteSpace=wrap;html=1;fillColor=#fff2cc;strokeColor=#d6b656;" vertex="1" parent="zI0suIIj4OnqdVt1A8pc-1">
          <mxGeometry x="450" y="679.97" width="40" height="40" as="geometry" />
        </mxCell>
        <mxCell id="zI0suIIj4OnqdVt1A8pc-148" value="9" style="rounded=0;whiteSpace=wrap;html=1;fillColor=#dae8fc;strokeColor=#6c8ebf;" vertex="1" parent="zI0suIIj4OnqdVt1A8pc-1">
          <mxGeometry x="490" y="719.97" width="40" height="40" as="geometry" />
        </mxCell>
        <mxCell id="zI0suIIj4OnqdVt1A8pc-149" value="8" style="rounded=0;whiteSpace=wrap;html=1;fillColor=#f8cecc;strokeColor=#b85450;" vertex="1" parent="zI0suIIj4OnqdVt1A8pc-1">
          <mxGeometry x="450" y="719.97" width="40" height="40" as="geometry" />
        </mxCell>
        <mxCell id="zI0suIIj4OnqdVt1A8pc-151" value="12" style="rounded=0;whiteSpace=wrap;html=1;" vertex="1" parent="zI0suIIj4OnqdVt1A8pc-1">
          <mxGeometry x="665" y="539.97" width="40" height="40" as="geometry" />
        </mxCell>
        <mxCell id="zI0suIIj4OnqdVt1A8pc-155" value="1" style="edgeStyle=orthogonalEdgeStyle;rounded=0;orthogonalLoop=1;jettySize=auto;html=1;dashed=1;startArrow=classic;startFill=1;strokeWidth=1;" edge="1" parent="zI0suIIj4OnqdVt1A8pc-1" source="zI0suIIj4OnqdVt1A8pc-152" target="zI0suIIj4OnqdVt1A8pc-151">
          <mxGeometry relative="1" as="geometry" />
        </mxCell>
        <mxCell id="zI0suIIj4OnqdVt1A8pc-152" value="11" style="rounded=0;whiteSpace=wrap;html=1;fillColor=#fff2cc;strokeColor=#d6b656;" vertex="1" parent="zI0suIIj4OnqdVt1A8pc-1">
          <mxGeometry x="625" y="539.97" width="40" height="40" as="geometry" />
        </mxCell>
        <mxCell id="zI0suIIj4OnqdVt1A8pc-153" value="12" style="rounded=0;whiteSpace=wrap;html=1;fillColor=#dae8fc;strokeColor=#6c8ebf;" vertex="1" parent="zI0suIIj4OnqdVt1A8pc-1">
          <mxGeometry x="665" y="579.97" width="40" height="40" as="geometry" />
        </mxCell>
        <mxCell id="zI0suIIj4OnqdVt1A8pc-154" value="11" style="rounded=0;whiteSpace=wrap;html=1;fillColor=#f8cecc;strokeColor=#b85450;" vertex="1" parent="zI0suIIj4OnqdVt1A8pc-1">
          <mxGeometry x="625" y="579.97" width="40" height="40" as="geometry" />
        </mxCell>
      </root>
    </mxGraphModel>
  </diagram>
  <diagram id="8idlx4jUw18-0GUS1l1E" name="слияние">
    <mxGraphModel dx="1422" dy="782" grid="1" gridSize="10" guides="1" tooltips="1" connect="1" arrows="1" fold="1" page="1" pageScale="1" pageWidth="1169" pageHeight="827" math="0" shadow="0">
      <root>
        <mxCell id="jhl78FFdBl3yOgYXDk3E-0" />
        <mxCell id="jhl78FFdBl3yOgYXDk3E-1" parent="jhl78FFdBl3yOgYXDk3E-0" />
        <mxCell id="Ps3FLlt9jqnxmU2OMPxC-0" style="edgeStyle=orthogonalEdgeStyle;rounded=0;orthogonalLoop=1;jettySize=auto;html=1;startArrow=none;" edge="1" parent="jhl78FFdBl3yOgYXDk3E-1" source="Ps3FLlt9jqnxmU2OMPxC-9" target="Ps3FLlt9jqnxmU2OMPxC-3">
          <mxGeometry relative="1" as="geometry" />
        </mxCell>
        <mxCell id="Ps3FLlt9jqnxmU2OMPxC-1" style="edgeStyle=orthogonalEdgeStyle;rounded=0;orthogonalLoop=1;jettySize=auto;html=1;" edge="1" parent="jhl78FFdBl3yOgYXDk3E-1" source="Ps3FLlt9jqnxmU2OMPxC-2" target="Ps3FLlt9jqnxmU2OMPxC-9">
          <mxGeometry relative="1" as="geometry" />
        </mxCell>
        <mxCell id="Ps3FLlt9jqnxmU2OMPxC-2" value="Начало" style="ellipse;whiteSpace=wrap;html=1;" vertex="1" parent="jhl78FFdBl3yOgYXDk3E-1">
          <mxGeometry x="240" y="100" width="120" height="80" as="geometry" />
        </mxCell>
        <mxCell id="Ps3FLlt9jqnxmU2OMPxC-3" value="Вызвать функцию msort" style="rounded=1;whiteSpace=wrap;html=1;" vertex="1" parent="jhl78FFdBl3yOgYXDk3E-1">
          <mxGeometry x="240" y="310" width="120" height="60" as="geometry" />
        </mxCell>
        <mxCell id="Ps3FLlt9jqnxmU2OMPxC-4" style="edgeStyle=orthogonalEdgeStyle;rounded=0;orthogonalLoop=1;jettySize=auto;html=1;" edge="1" parent="jhl78FFdBl3yOgYXDk3E-1" source="Ps3FLlt9jqnxmU2OMPxC-3" target="Ps3FLlt9jqnxmU2OMPxC-7">
          <mxGeometry relative="1" as="geometry" />
        </mxCell>
        <mxCell id="Ps3FLlt9jqnxmU2OMPxC-5" value="Да" style="edgeStyle=orthogonalEdgeStyle;rounded=0;orthogonalLoop=1;jettySize=auto;html=1;exitX=1;exitY=0.5;exitDx=0;exitDy=0;" edge="1" parent="jhl78FFdBl3yOgYXDk3E-1" source="Ps3FLlt9jqnxmU2OMPxC-7" target="KOOIIfbz-_ecb6mwa63G-8">
          <mxGeometry relative="1" as="geometry">
            <mxPoint x="430" y="430" as="targetPoint" />
          </mxGeometry>
        </mxCell>
        <mxCell id="Ps3FLlt9jqnxmU2OMPxC-6" value="Нет" style="edgeStyle=orthogonalEdgeStyle;rounded=0;orthogonalLoop=1;jettySize=auto;html=1;" edge="1" parent="jhl78FFdBl3yOgYXDk3E-1" source="Ps3FLlt9jqnxmU2OMPxC-7" target="Ps3FLlt9jqnxmU2OMPxC-8">
          <mxGeometry relative="1" as="geometry" />
        </mxCell>
        <mxCell id="Ps3FLlt9jqnxmU2OMPxC-7" value="left + 1 &amp;lt;= rigth" style="rhombus;whiteSpace=wrap;html=1;" vertex="1" parent="jhl78FFdBl3yOgYXDk3E-1">
          <mxGeometry x="240" y="400" width="120" height="60" as="geometry" />
        </mxCell>
        <mxCell id="Ps3FLlt9jqnxmU2OMPxC-8" value="Конец" style="ellipse;whiteSpace=wrap;html=1;" vertex="1" parent="jhl78FFdBl3yOgYXDk3E-1">
          <mxGeometry x="240" y="510" width="120" height="80" as="geometry" />
        </mxCell>
        <mxCell id="Ps3FLlt9jqnxmU2OMPxC-9" value="Задать: &lt;br&gt;array&lt;br&gt;left&lt;br&gt;rigth" style="shape=parallelogram;perimeter=parallelogramPerimeter;whiteSpace=wrap;html=1;fixedSize=1;" vertex="1" parent="jhl78FFdBl3yOgYXDk3E-1">
          <mxGeometry x="240" y="210" width="120" height="60" as="geometry" />
        </mxCell>
        <mxCell id="KOOIIfbz-_ecb6mwa63G-6" style="edgeStyle=orthogonalEdgeStyle;rounded=0;orthogonalLoop=1;jettySize=auto;html=1;startArrow=none;startFill=0;strokeWidth=1;" edge="1" parent="jhl78FFdBl3yOgYXDk3E-1" source="KOOIIfbz-_ecb6mwa63G-0" target="KOOIIfbz-_ecb6mwa63G-3">
          <mxGeometry relative="1" as="geometry">
            <Array as="points">
              <mxPoint x="730" y="430" />
              <mxPoint x="730" y="430" />
            </Array>
          </mxGeometry>
        </mxCell>
        <mxCell id="jzosPjs7_ef3Bb9Xyw-h-6" style="edgeStyle=orthogonalEdgeStyle;rounded=0;orthogonalLoop=1;jettySize=auto;html=1;startArrow=none;startFill=0;strokeWidth=1;" edge="1" parent="jhl78FFdBl3yOgYXDk3E-1" source="KOOIIfbz-_ecb6mwa63G-0" target="jzosPjs7_ef3Bb9Xyw-h-1">
          <mxGeometry relative="1" as="geometry" />
        </mxCell>
        <mxCell id="KOOIIfbz-_ecb6mwa63G-0" value="Вызвать функцию msort" style="rounded=1;whiteSpace=wrap;html=1;" vertex="1" parent="jhl78FFdBl3yOgYXDk3E-1">
          <mxGeometry x="600" y="400" width="120" height="60" as="geometry" />
        </mxCell>
        <mxCell id="jzosPjs7_ef3Bb9Xyw-h-8" style="edgeStyle=orthogonalEdgeStyle;rounded=0;orthogonalLoop=1;jettySize=auto;html=1;startArrow=none;startFill=0;strokeWidth=1;" edge="1" parent="jhl78FFdBl3yOgYXDk3E-1" source="KOOIIfbz-_ecb6mwa63G-3" target="jzosPjs7_ef3Bb9Xyw-h-3">
          <mxGeometry relative="1" as="geometry" />
        </mxCell>
        <mxCell id="jzosPjs7_ef3Bb9Xyw-h-11" style="edgeStyle=orthogonalEdgeStyle;rounded=0;orthogonalLoop=1;jettySize=auto;html=1;startArrow=none;startFill=0;strokeWidth=1;" edge="1" parent="jhl78FFdBl3yOgYXDk3E-1" source="KOOIIfbz-_ecb6mwa63G-3" target="jzosPjs7_ef3Bb9Xyw-h-10">
          <mxGeometry relative="1" as="geometry" />
        </mxCell>
        <mxCell id="KOOIIfbz-_ecb6mwa63G-3" value="Вызвать функцию msort" style="rounded=1;whiteSpace=wrap;html=1;" vertex="1" parent="jhl78FFdBl3yOgYXDk3E-1">
          <mxGeometry x="770" y="400" width="120" height="60" as="geometry" />
        </mxCell>
        <mxCell id="jzosPjs7_ef3Bb9Xyw-h-0" style="edgeStyle=orthogonalEdgeStyle;rounded=0;orthogonalLoop=1;jettySize=auto;html=1;startArrow=none;startFill=0;strokeWidth=1;" edge="1" parent="jhl78FFdBl3yOgYXDk3E-1" source="KOOIIfbz-_ecb6mwa63G-8" target="KOOIIfbz-_ecb6mwa63G-0">
          <mxGeometry relative="1" as="geometry" />
        </mxCell>
        <mxCell id="KOOIIfbz-_ecb6mwa63G-8" value="Определить середину" style="rounded=1;whiteSpace=wrap;html=1;" vertex="1" parent="jhl78FFdBl3yOgYXDk3E-1">
          <mxGeometry x="440" y="400" width="120" height="60" as="geometry" />
        </mxCell>
        <mxCell id="jzosPjs7_ef3Bb9Xyw-h-7" style="edgeStyle=orthogonalEdgeStyle;rounded=0;orthogonalLoop=1;jettySize=auto;html=1;startArrow=none;startFill=0;strokeWidth=1;" edge="1" parent="jhl78FFdBl3yOgYXDk3E-1" source="jzosPjs7_ef3Bb9Xyw-h-1" target="Ps3FLlt9jqnxmU2OMPxC-3">
          <mxGeometry relative="1" as="geometry" />
        </mxCell>
        <mxCell id="jzosPjs7_ef3Bb9Xyw-h-1" value="Аргументы: &lt;br&gt;array&lt;br&gt;left&lt;br&gt;rigth = mid" style="shape=parallelogram;perimeter=parallelogramPerimeter;whiteSpace=wrap;html=1;fixedSize=1;" vertex="1" parent="jhl78FFdBl3yOgYXDk3E-1">
          <mxGeometry x="600" y="310" width="120" height="60" as="geometry" />
        </mxCell>
        <mxCell id="jzosPjs7_ef3Bb9Xyw-h-9" style="edgeStyle=orthogonalEdgeStyle;rounded=0;orthogonalLoop=1;jettySize=auto;html=1;startArrow=none;startFill=0;strokeWidth=1;" edge="1" parent="jhl78FFdBl3yOgYXDk3E-1" source="jzosPjs7_ef3Bb9Xyw-h-3" target="Ps3FLlt9jqnxmU2OMPxC-3">
          <mxGeometry relative="1" as="geometry">
            <Array as="points">
              <mxPoint x="830" y="280" />
              <mxPoint x="480" y="280" />
              <mxPoint x="480" y="340" />
            </Array>
          </mxGeometry>
        </mxCell>
        <mxCell id="jzosPjs7_ef3Bb9Xyw-h-3" value="Аргументы: &lt;br&gt;array&lt;br&gt;left = mid&lt;br&gt;rigth" style="shape=parallelogram;perimeter=parallelogramPerimeter;whiteSpace=wrap;html=1;fixedSize=1;" vertex="1" parent="jhl78FFdBl3yOgYXDk3E-1">
          <mxGeometry x="770" y="310" width="120" height="60" as="geometry" />
        </mxCell>
        <mxCell id="jzosPjs7_ef3Bb9Xyw-h-12" style="edgeStyle=orthogonalEdgeStyle;rounded=0;orthogonalLoop=1;jettySize=auto;html=1;startArrow=none;startFill=0;strokeWidth=1;" edge="1" parent="jhl78FFdBl3yOgYXDk3E-1" source="jzosPjs7_ef3Bb9Xyw-h-10" target="Ps3FLlt9jqnxmU2OMPxC-8">
          <mxGeometry relative="1" as="geometry" />
        </mxCell>
        <mxCell id="jzosPjs7_ef3Bb9Xyw-h-10" value="Объединить &lt;br&gt;от left -&amp;gt; mid &lt;br&gt;до mid -&amp;gt; right" style="rounded=1;whiteSpace=wrap;html=1;" vertex="1" parent="jhl78FFdBl3yOgYXDk3E-1">
          <mxGeometry x="770" y="520" width="120" height="60" as="geometry" />
        </mxCell>
      </root>
    </mxGraphModel>
  </diagram>
  <diagram id="tqyN3LiTmsFTEQXZMMG4" name="пошагово слияние">
    <mxGraphModel dx="1422" dy="782" grid="1" gridSize="10" guides="1" tooltips="1" connect="1" arrows="1" fold="1" page="1" pageScale="1" pageWidth="1169" pageHeight="827" math="0" shadow="0">
      <root>
        <mxCell id="TEnfDju9ZT69KUJdj1cd-0" />
        <mxCell id="TEnfDju9ZT69KUJdj1cd-1" parent="TEnfDju9ZT69KUJdj1cd-0" />
        <mxCell id="u4_8pnW_TPjF4UHphQ5u-0" value="6" style="rounded=0;whiteSpace=wrap;html=1;" vertex="1" parent="TEnfDju9ZT69KUJdj1cd-1">
          <mxGeometry x="785" y="40" width="40" height="40" as="geometry" />
        </mxCell>
        <mxCell id="u4_8pnW_TPjF4UHphQ5u-1" value="7" style="rounded=0;whiteSpace=wrap;html=1;" vertex="1" parent="TEnfDju9ZT69KUJdj1cd-1">
          <mxGeometry x="745" y="40" width="40" height="40" as="geometry" />
        </mxCell>
        <mxCell id="u4_8pnW_TPjF4UHphQ5u-2" value="10" style="rounded=0;whiteSpace=wrap;html=1;" vertex="1" parent="TEnfDju9ZT69KUJdj1cd-1">
          <mxGeometry x="705" y="40" width="40" height="40" as="geometry" />
        </mxCell>
        <mxCell id="u4_8pnW_TPjF4UHphQ5u-3" value="4" style="rounded=0;whiteSpace=wrap;html=1;" vertex="1" parent="TEnfDju9ZT69KUJdj1cd-1">
          <mxGeometry x="665" y="40" width="40" height="40" as="geometry" />
        </mxCell>
        <mxCell id="u4_8pnW_TPjF4UHphQ5u-4" value="12" style="rounded=0;whiteSpace=wrap;html=1;" vertex="1" parent="TEnfDju9ZT69KUJdj1cd-1">
          <mxGeometry x="625" y="40" width="40" height="40" as="geometry" />
        </mxCell>
        <mxCell id="u4_8pnW_TPjF4UHphQ5u-5" value="5" style="rounded=0;whiteSpace=wrap;html=1;" vertex="1" parent="TEnfDju9ZT69KUJdj1cd-1">
          <mxGeometry x="585" y="40" width="40" height="40" as="geometry" />
        </mxCell>
        <mxCell id="u4_8pnW_TPjF4UHphQ5u-6" value="8" style="rounded=0;whiteSpace=wrap;html=1;" vertex="1" parent="TEnfDju9ZT69KUJdj1cd-1">
          <mxGeometry x="545" y="40" width="40" height="40" as="geometry" />
        </mxCell>
        <mxCell id="u4_8pnW_TPjF4UHphQ5u-7" value="11" style="rounded=0;whiteSpace=wrap;html=1;" vertex="1" parent="TEnfDju9ZT69KUJdj1cd-1">
          <mxGeometry x="505" y="40" width="40" height="40" as="geometry" />
        </mxCell>
        <mxCell id="u4_8pnW_TPjF4UHphQ5u-8" value="3" style="rounded=0;whiteSpace=wrap;html=1;" vertex="1" parent="TEnfDju9ZT69KUJdj1cd-1">
          <mxGeometry x="465" y="40" width="40" height="40" as="geometry" />
        </mxCell>
        <mxCell id="u4_8pnW_TPjF4UHphQ5u-9" value="2" style="rounded=0;whiteSpace=wrap;html=1;" vertex="1" parent="TEnfDju9ZT69KUJdj1cd-1">
          <mxGeometry x="425" y="40" width="40" height="40" as="geometry" />
        </mxCell>
        <mxCell id="u4_8pnW_TPjF4UHphQ5u-10" value="9" style="rounded=0;whiteSpace=wrap;html=1;" vertex="1" parent="TEnfDju9ZT69KUJdj1cd-1">
          <mxGeometry x="385" y="40" width="40" height="40" as="geometry" />
        </mxCell>
        <mxCell id="u4_8pnW_TPjF4UHphQ5u-11" value="1" style="rounded=0;whiteSpace=wrap;html=1;" vertex="1" parent="TEnfDju9ZT69KUJdj1cd-1">
          <mxGeometry x="345" y="40" width="40" height="40" as="geometry" />
        </mxCell>
        <mxCell id="u4_8pnW_TPjF4UHphQ5u-12" value="6" style="rounded=0;whiteSpace=wrap;html=1;" vertex="1" parent="TEnfDju9ZT69KUJdj1cd-1">
          <mxGeometry x="1000" y="120" width="40" height="40" as="geometry" />
        </mxCell>
        <mxCell id="u4_8pnW_TPjF4UHphQ5u-13" value="7" style="rounded=0;whiteSpace=wrap;html=1;" vertex="1" parent="TEnfDju9ZT69KUJdj1cd-1">
          <mxGeometry x="960" y="120" width="40" height="40" as="geometry" />
        </mxCell>
        <mxCell id="u4_8pnW_TPjF4UHphQ5u-14" value="10" style="rounded=0;whiteSpace=wrap;html=1;" vertex="1" parent="TEnfDju9ZT69KUJdj1cd-1">
          <mxGeometry x="920" y="120" width="40" height="40" as="geometry" />
        </mxCell>
        <mxCell id="u4_8pnW_TPjF4UHphQ5u-15" value="4" style="rounded=0;whiteSpace=wrap;html=1;" vertex="1" parent="TEnfDju9ZT69KUJdj1cd-1">
          <mxGeometry x="880" y="120" width="40" height="40" as="geometry" />
        </mxCell>
        <mxCell id="u4_8pnW_TPjF4UHphQ5u-16" value="12" style="rounded=0;whiteSpace=wrap;html=1;" vertex="1" parent="TEnfDju9ZT69KUJdj1cd-1">
          <mxGeometry x="840" y="120" width="40" height="40" as="geometry" />
        </mxCell>
        <mxCell id="u4_8pnW_TPjF4UHphQ5u-17" value="5" style="rounded=0;whiteSpace=wrap;html=1;" vertex="1" parent="TEnfDju9ZT69KUJdj1cd-1">
          <mxGeometry x="800" y="120" width="40" height="40" as="geometry" />
        </mxCell>
        <mxCell id="u4_8pnW_TPjF4UHphQ5u-18" value="8" style="rounded=0;whiteSpace=wrap;html=1;" vertex="1" parent="TEnfDju9ZT69KUJdj1cd-1">
          <mxGeometry x="320" y="120" width="40" height="40" as="geometry" />
        </mxCell>
        <mxCell id="u4_8pnW_TPjF4UHphQ5u-19" value="11" style="rounded=0;whiteSpace=wrap;html=1;" vertex="1" parent="TEnfDju9ZT69KUJdj1cd-1">
          <mxGeometry x="280" y="120" width="40" height="40" as="geometry" />
        </mxCell>
        <mxCell id="u4_8pnW_TPjF4UHphQ5u-20" value="3" style="rounded=0;whiteSpace=wrap;html=1;" vertex="1" parent="TEnfDju9ZT69KUJdj1cd-1">
          <mxGeometry x="240" y="120" width="40" height="40" as="geometry" />
        </mxCell>
        <mxCell id="u4_8pnW_TPjF4UHphQ5u-21" value="2" style="rounded=0;whiteSpace=wrap;html=1;" vertex="1" parent="TEnfDju9ZT69KUJdj1cd-1">
          <mxGeometry x="200" y="120" width="40" height="40" as="geometry" />
        </mxCell>
        <mxCell id="u4_8pnW_TPjF4UHphQ5u-22" value="9" style="rounded=0;whiteSpace=wrap;html=1;" vertex="1" parent="TEnfDju9ZT69KUJdj1cd-1">
          <mxGeometry x="160" y="120" width="40" height="40" as="geometry" />
        </mxCell>
        <mxCell id="u4_8pnW_TPjF4UHphQ5u-23" value="1" style="rounded=0;whiteSpace=wrap;html=1;" vertex="1" parent="TEnfDju9ZT69KUJdj1cd-1">
          <mxGeometry x="120" y="120" width="40" height="40" as="geometry" />
        </mxCell>
        <mxCell id="u4_8pnW_TPjF4UHphQ5u-24" value="2" style="rounded=0;whiteSpace=wrap;html=1;" vertex="1" parent="TEnfDju9ZT69KUJdj1cd-1">
          <mxGeometry x="160" y="200" width="40" height="40" as="geometry" />
        </mxCell>
        <mxCell id="u4_8pnW_TPjF4UHphQ5u-25" value="9" style="rounded=0;whiteSpace=wrap;html=1;" vertex="1" parent="TEnfDju9ZT69KUJdj1cd-1">
          <mxGeometry x="120" y="200" width="40" height="40" as="geometry" />
        </mxCell>
        <mxCell id="u4_8pnW_TPjF4UHphQ5u-26" value="1" style="rounded=0;whiteSpace=wrap;html=1;" vertex="1" parent="TEnfDju9ZT69KUJdj1cd-1">
          <mxGeometry x="40" y="200" width="40" height="40" as="geometry" />
        </mxCell>
        <mxCell id="u4_8pnW_TPjF4UHphQ5u-27" value="8" style="rounded=0;whiteSpace=wrap;html=1;" vertex="1" parent="TEnfDju9ZT69KUJdj1cd-1">
          <mxGeometry x="400" y="200" width="40" height="40" as="geometry" />
        </mxCell>
        <mxCell id="u4_8pnW_TPjF4UHphQ5u-28" value="11" style="rounded=0;whiteSpace=wrap;html=1;" vertex="1" parent="TEnfDju9ZT69KUJdj1cd-1">
          <mxGeometry x="360" y="200" width="40" height="40" as="geometry" />
        </mxCell>
        <mxCell id="u4_8pnW_TPjF4UHphQ5u-130" value="1" style="edgeStyle=orthogonalEdgeStyle;rounded=0;jumpStyle=sharp;orthogonalLoop=1;jettySize=auto;html=1;startArrow=none;startFill=0;strokeWidth=1;" edge="1" parent="TEnfDju9ZT69KUJdj1cd-1" source="u4_8pnW_TPjF4UHphQ5u-29" target="u4_8pnW_TPjF4UHphQ5u-49">
          <mxGeometry relative="1" as="geometry" />
        </mxCell>
        <mxCell id="u4_8pnW_TPjF4UHphQ5u-29" value="3" style="rounded=0;whiteSpace=wrap;html=1;" vertex="1" parent="TEnfDju9ZT69KUJdj1cd-1">
          <mxGeometry x="280" y="200" width="40" height="40" as="geometry" />
        </mxCell>
        <mxCell id="u4_8pnW_TPjF4UHphQ5u-30" value="" style="endArrow=none;html=1;rounded=0;strokeWidth=3;dashed=1;dashPattern=1 1;" edge="1" parent="TEnfDju9ZT69KUJdj1cd-1">
          <mxGeometry width="50" height="50" relative="1" as="geometry">
            <mxPoint x="555" y="100" as="sourcePoint" />
            <mxPoint x="615" y="20" as="targetPoint" />
            <Array as="points">
              <mxPoint x="585" y="100" />
              <mxPoint x="585" y="20" />
            </Array>
          </mxGeometry>
        </mxCell>
        <mxCell id="u4_8pnW_TPjF4UHphQ5u-31" value="" style="endArrow=none;html=1;rounded=0;strokeWidth=3;dashed=1;dashPattern=1 1;" edge="1" parent="TEnfDju9ZT69KUJdj1cd-1">
          <mxGeometry width="50" height="50" relative="1" as="geometry">
            <mxPoint x="210" y="180" as="sourcePoint" />
            <mxPoint x="270" y="100" as="targetPoint" />
            <Array as="points">
              <mxPoint x="240" y="180" />
              <mxPoint x="240" y="100" />
            </Array>
          </mxGeometry>
        </mxCell>
        <mxCell id="u4_8pnW_TPjF4UHphQ5u-123" value="1" style="edgeStyle=orthogonalEdgeStyle;rounded=0;orthogonalLoop=1;jettySize=auto;html=1;startArrow=none;startFill=0;strokeWidth=1;" edge="1" parent="TEnfDju9ZT69KUJdj1cd-1" source="u4_8pnW_TPjF4UHphQ5u-32" target="u4_8pnW_TPjF4UHphQ5u-37">
          <mxGeometry relative="1" as="geometry">
            <Array as="points">
              <mxPoint x="190" y="340" />
              <mxPoint x="140" y="340" />
            </Array>
          </mxGeometry>
        </mxCell>
        <mxCell id="u4_8pnW_TPjF4UHphQ5u-32" value="2" style="rounded=0;whiteSpace=wrap;html=1;" vertex="1" parent="TEnfDju9ZT69KUJdj1cd-1">
          <mxGeometry x="170" y="280" width="40" height="40" as="geometry" />
        </mxCell>
        <mxCell id="u4_8pnW_TPjF4UHphQ5u-124" value="2" style="edgeStyle=orthogonalEdgeStyle;rounded=0;orthogonalLoop=1;jettySize=auto;html=1;startArrow=none;startFill=0;strokeWidth=1;jumpStyle=sharp;" edge="1" parent="TEnfDju9ZT69KUJdj1cd-1" source="u4_8pnW_TPjF4UHphQ5u-33" target="u4_8pnW_TPjF4UHphQ5u-38">
          <mxGeometry relative="1" as="geometry">
            <Array as="points">
              <mxPoint x="130" y="330" />
              <mxPoint x="180" y="330" />
            </Array>
          </mxGeometry>
        </mxCell>
        <mxCell id="u4_8pnW_TPjF4UHphQ5u-33" value="9" style="rounded=0;whiteSpace=wrap;html=1;" vertex="1" parent="TEnfDju9ZT69KUJdj1cd-1">
          <mxGeometry x="110" y="280" width="40" height="40" as="geometry" />
        </mxCell>
        <mxCell id="u4_8pnW_TPjF4UHphQ5u-125" value="1" style="edgeStyle=orthogonalEdgeStyle;rounded=0;jumpStyle=sharp;orthogonalLoop=1;jettySize=auto;html=1;startArrow=none;startFill=0;strokeWidth=1;" edge="1" parent="TEnfDju9ZT69KUJdj1cd-1" source="u4_8pnW_TPjF4UHphQ5u-26" target="u4_8pnW_TPjF4UHphQ5u-42">
          <mxGeometry relative="1" as="geometry">
            <mxPoint x="40" y="319.9999999999999" as="sourcePoint" />
          </mxGeometry>
        </mxCell>
        <mxCell id="u4_8pnW_TPjF4UHphQ5u-126" value="2" style="edgeStyle=orthogonalEdgeStyle;rounded=0;jumpStyle=sharp;orthogonalLoop=1;jettySize=auto;html=1;startArrow=none;startFill=0;strokeWidth=1;" edge="1" parent="TEnfDju9ZT69KUJdj1cd-1" source="u4_8pnW_TPjF4UHphQ5u-37" target="u4_8pnW_TPjF4UHphQ5u-40">
          <mxGeometry relative="1" as="geometry">
            <Array as="points">
              <mxPoint x="140" y="420" />
              <mxPoint x="100" y="420" />
            </Array>
          </mxGeometry>
        </mxCell>
        <mxCell id="u4_8pnW_TPjF4UHphQ5u-37" value="2" style="rounded=0;whiteSpace=wrap;html=1;fillColor=#dae8fc;strokeColor=#6c8ebf;" vertex="1" parent="TEnfDju9ZT69KUJdj1cd-1">
          <mxGeometry x="120" y="360" width="40" height="40" as="geometry" />
        </mxCell>
        <mxCell id="u4_8pnW_TPjF4UHphQ5u-127" value="3" style="edgeStyle=orthogonalEdgeStyle;rounded=0;jumpStyle=sharp;orthogonalLoop=1;jettySize=auto;html=1;startArrow=none;startFill=0;strokeWidth=1;" edge="1" parent="TEnfDju9ZT69KUJdj1cd-1" source="u4_8pnW_TPjF4UHphQ5u-38" target="u4_8pnW_TPjF4UHphQ5u-41">
          <mxGeometry relative="1" as="geometry">
            <Array as="points">
              <mxPoint x="180" y="460" />
            </Array>
          </mxGeometry>
        </mxCell>
        <mxCell id="u4_8pnW_TPjF4UHphQ5u-38" value="9" style="rounded=0;whiteSpace=wrap;html=1;fillColor=#dae8fc;strokeColor=#6c8ebf;" vertex="1" parent="TEnfDju9ZT69KUJdj1cd-1">
          <mxGeometry x="160" y="360" width="40" height="40" as="geometry" />
        </mxCell>
        <mxCell id="u4_8pnW_TPjF4UHphQ5u-134" value="2" style="edgeStyle=orthogonalEdgeStyle;rounded=0;jumpStyle=sharp;orthogonalLoop=1;jettySize=auto;html=1;startArrow=none;startFill=0;strokeWidth=1;" edge="1" parent="TEnfDju9ZT69KUJdj1cd-1" source="u4_8pnW_TPjF4UHphQ5u-40" target="u4_8pnW_TPjF4UHphQ5u-56">
          <mxGeometry relative="1" as="geometry">
            <Array as="points">
              <mxPoint x="100" y="530" />
              <mxPoint x="180" y="530" />
            </Array>
          </mxGeometry>
        </mxCell>
        <mxCell id="u4_8pnW_TPjF4UHphQ5u-40" value="2" style="rounded=0;whiteSpace=wrap;html=1;fillColor=#dae8fc;strokeColor=#6c8ebf;" vertex="1" parent="TEnfDju9ZT69KUJdj1cd-1">
          <mxGeometry x="80" y="440" width="40" height="40" as="geometry" />
        </mxCell>
        <mxCell id="u4_8pnW_TPjF4UHphQ5u-137" value="5" style="edgeStyle=orthogonalEdgeStyle;rounded=0;jumpStyle=sharp;orthogonalLoop=1;jettySize=auto;html=1;startArrow=none;startFill=0;strokeWidth=1;" edge="1" parent="TEnfDju9ZT69KUJdj1cd-1" source="u4_8pnW_TPjF4UHphQ5u-41" target="u4_8pnW_TPjF4UHphQ5u-57">
          <mxGeometry relative="1" as="geometry">
            <Array as="points">
              <mxPoint x="140" y="510" />
              <mxPoint x="300" y="510" />
            </Array>
          </mxGeometry>
        </mxCell>
        <mxCell id="u4_8pnW_TPjF4UHphQ5u-41" value="9" style="rounded=0;whiteSpace=wrap;html=1;fillColor=#dae8fc;strokeColor=#6c8ebf;" vertex="1" parent="TEnfDju9ZT69KUJdj1cd-1">
          <mxGeometry x="120" y="440" width="40" height="40" as="geometry" />
        </mxCell>
        <mxCell id="u4_8pnW_TPjF4UHphQ5u-133" value="1" style="edgeStyle=orthogonalEdgeStyle;rounded=0;jumpStyle=sharp;orthogonalLoop=1;jettySize=auto;html=1;startArrow=none;startFill=0;strokeWidth=1;" edge="1" parent="TEnfDju9ZT69KUJdj1cd-1" source="u4_8pnW_TPjF4UHphQ5u-42" target="u4_8pnW_TPjF4UHphQ5u-58">
          <mxGeometry relative="1" as="geometry">
            <Array as="points">
              <mxPoint x="60" y="540" />
            </Array>
          </mxGeometry>
        </mxCell>
        <mxCell id="u4_8pnW_TPjF4UHphQ5u-42" value="1" style="rounded=0;whiteSpace=wrap;html=1;fillColor=#dae8fc;strokeColor=#6c8ebf;" vertex="1" parent="TEnfDju9ZT69KUJdj1cd-1">
          <mxGeometry x="40" y="440" width="40" height="40" as="geometry" />
        </mxCell>
        <mxCell id="u4_8pnW_TPjF4UHphQ5u-129" value="2" style="edgeStyle=orthogonalEdgeStyle;rounded=0;jumpStyle=sharp;orthogonalLoop=1;jettySize=auto;html=1;startArrow=none;startFill=0;strokeWidth=1;" edge="1" parent="TEnfDju9ZT69KUJdj1cd-1" source="u4_8pnW_TPjF4UHphQ5u-43" target="u4_8pnW_TPjF4UHphQ5u-45">
          <mxGeometry relative="1" as="geometry">
            <Array as="points">
              <mxPoint x="370" y="330" />
              <mxPoint x="420" y="330" />
            </Array>
          </mxGeometry>
        </mxCell>
        <mxCell id="u4_8pnW_TPjF4UHphQ5u-43" value="11" style="rounded=0;whiteSpace=wrap;html=1;" vertex="1" parent="TEnfDju9ZT69KUJdj1cd-1">
          <mxGeometry x="350" y="280" width="40" height="40" as="geometry" />
        </mxCell>
        <mxCell id="u4_8pnW_TPjF4UHphQ5u-128" value="1" style="edgeStyle=orthogonalEdgeStyle;rounded=0;jumpStyle=sharp;orthogonalLoop=1;jettySize=auto;html=1;startArrow=none;startFill=0;strokeWidth=1;" edge="1" parent="TEnfDju9ZT69KUJdj1cd-1" source="u4_8pnW_TPjF4UHphQ5u-44" target="u4_8pnW_TPjF4UHphQ5u-46">
          <mxGeometry relative="1" as="geometry">
            <Array as="points">
              <mxPoint x="430" y="340" />
              <mxPoint x="380" y="340" />
            </Array>
          </mxGeometry>
        </mxCell>
        <mxCell id="u4_8pnW_TPjF4UHphQ5u-44" value="8" style="rounded=0;whiteSpace=wrap;html=1;" vertex="1" parent="TEnfDju9ZT69KUJdj1cd-1">
          <mxGeometry x="410" y="280" width="40" height="40" as="geometry" />
        </mxCell>
        <mxCell id="u4_8pnW_TPjF4UHphQ5u-132" value="3" style="edgeStyle=orthogonalEdgeStyle;rounded=0;jumpStyle=sharp;orthogonalLoop=1;jettySize=auto;html=1;startArrow=none;startFill=0;strokeWidth=1;" edge="1" parent="TEnfDju9ZT69KUJdj1cd-1" source="u4_8pnW_TPjF4UHphQ5u-45" target="u4_8pnW_TPjF4UHphQ5u-47">
          <mxGeometry relative="1" as="geometry">
            <Array as="points">
              <mxPoint x="420" y="460" />
            </Array>
          </mxGeometry>
        </mxCell>
        <mxCell id="u4_8pnW_TPjF4UHphQ5u-45" value="11" style="rounded=0;whiteSpace=wrap;html=1;fillColor=#dae8fc;strokeColor=#6c8ebf;" vertex="1" parent="TEnfDju9ZT69KUJdj1cd-1">
          <mxGeometry x="400" y="360" width="40" height="40" as="geometry" />
        </mxCell>
        <mxCell id="u4_8pnW_TPjF4UHphQ5u-131" value="2" style="edgeStyle=orthogonalEdgeStyle;rounded=0;jumpStyle=sharp;orthogonalLoop=1;jettySize=auto;html=1;startArrow=none;startFill=0;strokeWidth=1;" edge="1" parent="TEnfDju9ZT69KUJdj1cd-1" source="u4_8pnW_TPjF4UHphQ5u-46" target="u4_8pnW_TPjF4UHphQ5u-48">
          <mxGeometry relative="1" as="geometry" />
        </mxCell>
        <mxCell id="u4_8pnW_TPjF4UHphQ5u-46" value="8" style="rounded=0;whiteSpace=wrap;html=1;fillColor=#dae8fc;strokeColor=#6c8ebf;" vertex="1" parent="TEnfDju9ZT69KUJdj1cd-1">
          <mxGeometry x="360" y="360" width="40" height="40" as="geometry" />
        </mxCell>
        <mxCell id="u4_8pnW_TPjF4UHphQ5u-138" value="6" style="edgeStyle=orthogonalEdgeStyle;rounded=0;jumpStyle=sharp;orthogonalLoop=1;jettySize=auto;html=1;startArrow=none;startFill=0;strokeWidth=1;" edge="1" parent="TEnfDju9ZT69KUJdj1cd-1" source="u4_8pnW_TPjF4UHphQ5u-47" target="u4_8pnW_TPjF4UHphQ5u-59">
          <mxGeometry relative="1" as="geometry">
            <Array as="points">
              <mxPoint x="380" y="540" />
            </Array>
          </mxGeometry>
        </mxCell>
        <mxCell id="u4_8pnW_TPjF4UHphQ5u-47" value="11" style="rounded=0;whiteSpace=wrap;html=1;fillColor=#dae8fc;strokeColor=#6c8ebf;" vertex="1" parent="TEnfDju9ZT69KUJdj1cd-1">
          <mxGeometry x="360" y="440" width="40" height="40" as="geometry" />
        </mxCell>
        <mxCell id="u4_8pnW_TPjF4UHphQ5u-136" value="4" style="edgeStyle=orthogonalEdgeStyle;rounded=0;jumpStyle=sharp;orthogonalLoop=1;jettySize=auto;html=1;startArrow=none;startFill=0;strokeWidth=1;" edge="1" parent="TEnfDju9ZT69KUJdj1cd-1" source="u4_8pnW_TPjF4UHphQ5u-48" target="u4_8pnW_TPjF4UHphQ5u-60">
          <mxGeometry relative="1" as="geometry">
            <Array as="points">
              <mxPoint x="340" y="530" />
              <mxPoint x="260" y="530" />
            </Array>
          </mxGeometry>
        </mxCell>
        <mxCell id="u4_8pnW_TPjF4UHphQ5u-48" value="8" style="rounded=0;whiteSpace=wrap;html=1;fillColor=#dae8fc;strokeColor=#6c8ebf;" vertex="1" parent="TEnfDju9ZT69KUJdj1cd-1">
          <mxGeometry x="320" y="440" width="40" height="40" as="geometry" />
        </mxCell>
        <mxCell id="u4_8pnW_TPjF4UHphQ5u-135" value="3" style="edgeStyle=orthogonalEdgeStyle;rounded=0;jumpStyle=sharp;orthogonalLoop=1;jettySize=auto;html=1;startArrow=none;startFill=0;strokeWidth=1;" edge="1" parent="TEnfDju9ZT69KUJdj1cd-1" source="u4_8pnW_TPjF4UHphQ5u-49" target="u4_8pnW_TPjF4UHphQ5u-61">
          <mxGeometry relative="1" as="geometry" />
        </mxCell>
        <mxCell id="u4_8pnW_TPjF4UHphQ5u-49" value="3" style="rounded=0;whiteSpace=wrap;html=1;fillColor=#dae8fc;strokeColor=#6c8ebf;" vertex="1" parent="TEnfDju9ZT69KUJdj1cd-1">
          <mxGeometry x="280" y="440" width="40" height="40" as="geometry" />
        </mxCell>
        <mxCell id="u4_8pnW_TPjF4UHphQ5u-156" value="2" style="edgeStyle=orthogonalEdgeStyle;rounded=0;jumpStyle=sharp;orthogonalLoop=1;jettySize=auto;html=1;startArrow=none;startFill=0;strokeWidth=1;" edge="1" parent="TEnfDju9ZT69KUJdj1cd-1" source="u4_8pnW_TPjF4UHphQ5u-56" target="u4_8pnW_TPjF4UHphQ5u-106">
          <mxGeometry relative="1" as="geometry">
            <Array as="points">
              <mxPoint x="180" y="690" />
              <mxPoint x="405" y="690" />
            </Array>
          </mxGeometry>
        </mxCell>
        <mxCell id="u4_8pnW_TPjF4UHphQ5u-56" value="2" style="rounded=0;whiteSpace=wrap;html=1;fillColor=#dae8fc;strokeColor=#6c8ebf;" vertex="1" parent="TEnfDju9ZT69KUJdj1cd-1">
          <mxGeometry x="160" y="560" width="40" height="40" as="geometry" />
        </mxCell>
        <mxCell id="u4_8pnW_TPjF4UHphQ5u-163" value="9" style="edgeStyle=orthogonalEdgeStyle;rounded=0;jumpStyle=sharp;orthogonalLoop=1;jettySize=auto;html=1;startArrow=none;startFill=0;strokeWidth=1;" edge="1" parent="TEnfDju9ZT69KUJdj1cd-1" source="u4_8pnW_TPjF4UHphQ5u-57" target="u4_8pnW_TPjF4UHphQ5u-107">
          <mxGeometry relative="1" as="geometry">
            <Array as="points">
              <mxPoint x="300" y="630" />
              <mxPoint x="685" y="630" />
            </Array>
          </mxGeometry>
        </mxCell>
        <mxCell id="u4_8pnW_TPjF4UHphQ5u-57" value="9" style="rounded=0;whiteSpace=wrap;html=1;fillColor=#dae8fc;strokeColor=#6c8ebf;" vertex="1" parent="TEnfDju9ZT69KUJdj1cd-1">
          <mxGeometry x="280" y="560" width="40" height="40" as="geometry" />
        </mxCell>
        <mxCell id="u4_8pnW_TPjF4UHphQ5u-155" value="1" style="edgeStyle=orthogonalEdgeStyle;rounded=0;jumpStyle=sharp;orthogonalLoop=1;jettySize=auto;html=1;startArrow=none;startFill=0;strokeWidth=1;" edge="1" parent="TEnfDju9ZT69KUJdj1cd-1" source="u4_8pnW_TPjF4UHphQ5u-58" target="u4_8pnW_TPjF4UHphQ5u-108">
          <mxGeometry relative="1" as="geometry">
            <Array as="points">
              <mxPoint x="140" y="700" />
              <mxPoint x="365" y="700" />
            </Array>
          </mxGeometry>
        </mxCell>
        <mxCell id="u4_8pnW_TPjF4UHphQ5u-58" value="1" style="rounded=0;whiteSpace=wrap;html=1;fillColor=#dae8fc;strokeColor=#6c8ebf;" vertex="1" parent="TEnfDju9ZT69KUJdj1cd-1">
          <mxGeometry x="120" y="560" width="40" height="40" as="geometry" />
        </mxCell>
        <mxCell id="u4_8pnW_TPjF4UHphQ5u-164" value="11" style="edgeStyle=orthogonalEdgeStyle;rounded=0;jumpStyle=sharp;orthogonalLoop=1;jettySize=auto;html=1;startArrow=none;startFill=0;strokeWidth=1;" edge="1" parent="TEnfDju9ZT69KUJdj1cd-1" source="u4_8pnW_TPjF4UHphQ5u-59" target="u4_8pnW_TPjF4UHphQ5u-109">
          <mxGeometry relative="1" as="geometry">
            <Array as="points">
              <mxPoint x="340" y="620" />
              <mxPoint x="765" y="620" />
            </Array>
          </mxGeometry>
        </mxCell>
        <mxCell id="u4_8pnW_TPjF4UHphQ5u-59" value="11" style="rounded=0;whiteSpace=wrap;html=1;fillColor=#dae8fc;strokeColor=#6c8ebf;" vertex="1" parent="TEnfDju9ZT69KUJdj1cd-1">
          <mxGeometry x="320" y="560" width="40" height="40" as="geometry" />
        </mxCell>
        <mxCell id="u4_8pnW_TPjF4UHphQ5u-162" value="8" style="edgeStyle=orthogonalEdgeStyle;rounded=0;jumpStyle=sharp;orthogonalLoop=1;jettySize=auto;html=1;startArrow=none;startFill=0;strokeWidth=1;" edge="1" parent="TEnfDju9ZT69KUJdj1cd-1" source="u4_8pnW_TPjF4UHphQ5u-60" target="u4_8pnW_TPjF4UHphQ5u-110">
          <mxGeometry relative="1" as="geometry">
            <Array as="points">
              <mxPoint x="260" y="640" />
              <mxPoint x="645" y="640" />
            </Array>
          </mxGeometry>
        </mxCell>
        <mxCell id="u4_8pnW_TPjF4UHphQ5u-60" value="8" style="rounded=0;whiteSpace=wrap;html=1;fillColor=#dae8fc;strokeColor=#6c8ebf;" vertex="1" parent="TEnfDju9ZT69KUJdj1cd-1">
          <mxGeometry x="240" y="560" width="40" height="40" as="geometry" />
        </mxCell>
        <mxCell id="u4_8pnW_TPjF4UHphQ5u-157" value="3" style="edgeStyle=orthogonalEdgeStyle;rounded=0;jumpStyle=sharp;orthogonalLoop=1;jettySize=auto;html=1;startArrow=none;startFill=0;strokeWidth=1;" edge="1" parent="TEnfDju9ZT69KUJdj1cd-1" source="u4_8pnW_TPjF4UHphQ5u-61" target="u4_8pnW_TPjF4UHphQ5u-111">
          <mxGeometry relative="1" as="geometry">
            <Array as="points">
              <mxPoint x="220" y="680" />
              <mxPoint x="445" y="680" />
            </Array>
          </mxGeometry>
        </mxCell>
        <mxCell id="u4_8pnW_TPjF4UHphQ5u-61" value="3" style="rounded=0;whiteSpace=wrap;html=1;fillColor=#dae8fc;strokeColor=#6c8ebf;" vertex="1" parent="TEnfDju9ZT69KUJdj1cd-1">
          <mxGeometry x="200" y="560" width="40" height="40" as="geometry" />
        </mxCell>
        <mxCell id="u4_8pnW_TPjF4UHphQ5u-62" value="4" style="rounded=0;whiteSpace=wrap;html=1;" vertex="1" parent="TEnfDju9ZT69KUJdj1cd-1">
          <mxGeometry x="840" y="200" width="40" height="40" as="geometry" />
        </mxCell>
        <mxCell id="u4_8pnW_TPjF4UHphQ5u-63" value="12" style="rounded=0;whiteSpace=wrap;html=1;" vertex="1" parent="TEnfDju9ZT69KUJdj1cd-1">
          <mxGeometry x="800" y="200" width="40" height="40" as="geometry" />
        </mxCell>
        <mxCell id="u4_8pnW_TPjF4UHphQ5u-144" value="2" style="edgeStyle=orthogonalEdgeStyle;rounded=0;jumpStyle=sharp;orthogonalLoop=1;jettySize=auto;html=1;startArrow=none;startFill=0;strokeWidth=1;" edge="1" parent="TEnfDju9ZT69KUJdj1cd-1" source="u4_8pnW_TPjF4UHphQ5u-64" target="u4_8pnW_TPjF4UHphQ5u-76">
          <mxGeometry relative="1" as="geometry" />
        </mxCell>
        <mxCell id="u4_8pnW_TPjF4UHphQ5u-64" value="5" style="rounded=0;whiteSpace=wrap;html=1;" vertex="1" parent="TEnfDju9ZT69KUJdj1cd-1">
          <mxGeometry x="720" y="200" width="40" height="40" as="geometry" />
        </mxCell>
        <mxCell id="u4_8pnW_TPjF4UHphQ5u-139" value="1" style="edgeStyle=orthogonalEdgeStyle;rounded=0;jumpStyle=sharp;orthogonalLoop=1;jettySize=auto;html=1;startArrow=none;startFill=0;strokeWidth=1;" edge="1" parent="TEnfDju9ZT69KUJdj1cd-1" source="u4_8pnW_TPjF4UHphQ5u-65" target="u4_8pnW_TPjF4UHphQ5u-72">
          <mxGeometry relative="1" as="geometry">
            <Array as="points">
              <mxPoint x="870" y="340" />
              <mxPoint x="820" y="340" />
            </Array>
          </mxGeometry>
        </mxCell>
        <mxCell id="u4_8pnW_TPjF4UHphQ5u-65" value="4" style="rounded=0;whiteSpace=wrap;html=1;" vertex="1" parent="TEnfDju9ZT69KUJdj1cd-1">
          <mxGeometry x="850" y="280" width="40" height="40" as="geometry" />
        </mxCell>
        <mxCell id="u4_8pnW_TPjF4UHphQ5u-140" value="2" style="edgeStyle=orthogonalEdgeStyle;rounded=0;jumpStyle=sharp;orthogonalLoop=1;jettySize=auto;html=1;startArrow=none;startFill=0;strokeWidth=1;" edge="1" parent="TEnfDju9ZT69KUJdj1cd-1" source="u4_8pnW_TPjF4UHphQ5u-66" target="u4_8pnW_TPjF4UHphQ5u-73">
          <mxGeometry relative="1" as="geometry">
            <Array as="points">
              <mxPoint x="810" y="330" />
              <mxPoint x="860" y="330" />
            </Array>
          </mxGeometry>
        </mxCell>
        <mxCell id="u4_8pnW_TPjF4UHphQ5u-66" value="12" style="rounded=0;whiteSpace=wrap;html=1;" vertex="1" parent="TEnfDju9ZT69KUJdj1cd-1">
          <mxGeometry x="790" y="280" width="40" height="40" as="geometry" />
        </mxCell>
        <mxCell id="u4_8pnW_TPjF4UHphQ5u-67" value="6" style="rounded=0;whiteSpace=wrap;html=1;" vertex="1" parent="TEnfDju9ZT69KUJdj1cd-1">
          <mxGeometry x="1080" y="200" width="40" height="40" as="geometry" />
        </mxCell>
        <mxCell id="u4_8pnW_TPjF4UHphQ5u-68" value="7" style="rounded=0;whiteSpace=wrap;html=1;" vertex="1" parent="TEnfDju9ZT69KUJdj1cd-1">
          <mxGeometry x="1040" y="200" width="40" height="40" as="geometry" />
        </mxCell>
        <mxCell id="u4_8pnW_TPjF4UHphQ5u-148" value="3" style="edgeStyle=orthogonalEdgeStyle;rounded=0;jumpStyle=sharp;orthogonalLoop=1;jettySize=auto;html=1;entryX=0.5;entryY=0;entryDx=0;entryDy=0;startArrow=none;startFill=0;strokeWidth=1;" edge="1" parent="TEnfDju9ZT69KUJdj1cd-1" source="u4_8pnW_TPjF4UHphQ5u-69" target="u4_8pnW_TPjF4UHphQ5u-81">
          <mxGeometry relative="1" as="geometry">
            <Array as="points">
              <mxPoint x="980" y="300" />
              <mxPoint x="1000" y="300" />
              <mxPoint x="1000" y="420" />
              <mxPoint x="1060" y="420" />
            </Array>
          </mxGeometry>
        </mxCell>
        <mxCell id="u4_8pnW_TPjF4UHphQ5u-69" value="10" style="rounded=0;whiteSpace=wrap;html=1;" vertex="1" parent="TEnfDju9ZT69KUJdj1cd-1">
          <mxGeometry x="960" y="200" width="40" height="40" as="geometry" />
        </mxCell>
        <mxCell id="u4_8pnW_TPjF4UHphQ5u-141" value="1" style="edgeStyle=orthogonalEdgeStyle;rounded=0;jumpStyle=sharp;orthogonalLoop=1;jettySize=auto;html=1;startArrow=none;startFill=0;strokeWidth=1;" edge="1" parent="TEnfDju9ZT69KUJdj1cd-1" source="u4_8pnW_TPjF4UHphQ5u-70" target="u4_8pnW_TPjF4UHphQ5u-77">
          <mxGeometry relative="1" as="geometry">
            <Array as="points">
              <mxPoint x="1110" y="340" />
              <mxPoint x="1060" y="340" />
            </Array>
          </mxGeometry>
        </mxCell>
        <mxCell id="u4_8pnW_TPjF4UHphQ5u-70" value="6" style="rounded=0;whiteSpace=wrap;html=1;" vertex="1" parent="TEnfDju9ZT69KUJdj1cd-1">
          <mxGeometry x="1090" y="280" width="40" height="40" as="geometry" />
        </mxCell>
        <mxCell id="u4_8pnW_TPjF4UHphQ5u-142" value="2" style="edgeStyle=orthogonalEdgeStyle;rounded=0;jumpStyle=sharp;orthogonalLoop=1;jettySize=auto;html=1;startArrow=none;startFill=0;strokeWidth=1;" edge="1" parent="TEnfDju9ZT69KUJdj1cd-1" source="u4_8pnW_TPjF4UHphQ5u-71" target="u4_8pnW_TPjF4UHphQ5u-78">
          <mxGeometry relative="1" as="geometry">
            <Array as="points">
              <mxPoint x="1050" y="330" />
              <mxPoint x="1100" y="330" />
            </Array>
          </mxGeometry>
        </mxCell>
        <mxCell id="u4_8pnW_TPjF4UHphQ5u-71" value="7" style="rounded=0;whiteSpace=wrap;html=1;" vertex="1" parent="TEnfDju9ZT69KUJdj1cd-1">
          <mxGeometry x="1030" y="280" width="40" height="40" as="geometry" />
        </mxCell>
        <mxCell id="u4_8pnW_TPjF4UHphQ5u-143" value="1" style="edgeStyle=orthogonalEdgeStyle;rounded=0;jumpStyle=sharp;orthogonalLoop=1;jettySize=auto;html=1;startArrow=none;startFill=0;strokeWidth=1;" edge="1" parent="TEnfDju9ZT69KUJdj1cd-1" source="u4_8pnW_TPjF4UHphQ5u-72" target="u4_8pnW_TPjF4UHphQ5u-74">
          <mxGeometry relative="1" as="geometry" />
        </mxCell>
        <mxCell id="u4_8pnW_TPjF4UHphQ5u-72" value="4" style="rounded=0;whiteSpace=wrap;html=1;fillColor=#dae8fc;strokeColor=#6c8ebf;" vertex="1" parent="TEnfDju9ZT69KUJdj1cd-1">
          <mxGeometry x="800" y="360" width="40" height="40" as="geometry" />
        </mxCell>
        <mxCell id="u4_8pnW_TPjF4UHphQ5u-145" value="3" style="edgeStyle=orthogonalEdgeStyle;rounded=0;jumpStyle=sharp;orthogonalLoop=1;jettySize=auto;html=1;startArrow=none;startFill=0;strokeWidth=1;" edge="1" parent="TEnfDju9ZT69KUJdj1cd-1" source="u4_8pnW_TPjF4UHphQ5u-73" target="u4_8pnW_TPjF4UHphQ5u-75">
          <mxGeometry relative="1" as="geometry">
            <Array as="points">
              <mxPoint x="860" y="460" />
            </Array>
          </mxGeometry>
        </mxCell>
        <mxCell id="u4_8pnW_TPjF4UHphQ5u-73" value="12" style="rounded=0;whiteSpace=wrap;html=1;fillColor=#dae8fc;strokeColor=#6c8ebf;" vertex="1" parent="TEnfDju9ZT69KUJdj1cd-1">
          <mxGeometry x="840" y="360" width="40" height="40" as="geometry" />
        </mxCell>
        <mxCell id="u4_8pnW_TPjF4UHphQ5u-149" value="1" style="edgeStyle=orthogonalEdgeStyle;rounded=0;jumpStyle=sharp;orthogonalLoop=1;jettySize=auto;html=1;startArrow=none;startFill=0;strokeWidth=1;" edge="1" parent="TEnfDju9ZT69KUJdj1cd-1" source="u4_8pnW_TPjF4UHphQ5u-74" target="u4_8pnW_TPjF4UHphQ5u-88">
          <mxGeometry relative="1" as="geometry">
            <Array as="points">
              <mxPoint x="740" y="540" />
            </Array>
          </mxGeometry>
        </mxCell>
        <mxCell id="u4_8pnW_TPjF4UHphQ5u-74" value="4" style="rounded=0;whiteSpace=wrap;html=1;fillColor=#dae8fc;strokeColor=#6c8ebf;" vertex="1" parent="TEnfDju9ZT69KUJdj1cd-1">
          <mxGeometry x="720" y="440" width="40" height="40" as="geometry" />
        </mxCell>
        <mxCell id="u4_8pnW_TPjF4UHphQ5u-154" value="6" style="edgeStyle=orthogonalEdgeStyle;rounded=0;jumpStyle=sharp;orthogonalLoop=1;jettySize=auto;html=1;startArrow=none;startFill=0;strokeWidth=1;" edge="1" parent="TEnfDju9ZT69KUJdj1cd-1" source="u4_8pnW_TPjF4UHphQ5u-75" target="u4_8pnW_TPjF4UHphQ5u-89">
          <mxGeometry relative="1" as="geometry">
            <Array as="points">
              <mxPoint x="820" y="520" />
              <mxPoint x="1020" y="520" />
            </Array>
          </mxGeometry>
        </mxCell>
        <mxCell id="u4_8pnW_TPjF4UHphQ5u-75" value="12" style="rounded=0;whiteSpace=wrap;html=1;fillColor=#dae8fc;strokeColor=#6c8ebf;" vertex="1" parent="TEnfDju9ZT69KUJdj1cd-1">
          <mxGeometry x="800" y="440" width="40" height="40" as="geometry" />
        </mxCell>
        <mxCell id="u4_8pnW_TPjF4UHphQ5u-150" value="2" style="edgeStyle=orthogonalEdgeStyle;rounded=0;jumpStyle=sharp;orthogonalLoop=1;jettySize=auto;html=1;startArrow=none;startFill=0;strokeWidth=1;" edge="1" parent="TEnfDju9ZT69KUJdj1cd-1" source="u4_8pnW_TPjF4UHphQ5u-76" target="u4_8pnW_TPjF4UHphQ5u-90">
          <mxGeometry relative="1" as="geometry">
            <Array as="points">
              <mxPoint x="780" y="530" />
              <mxPoint x="860" y="530" />
            </Array>
          </mxGeometry>
        </mxCell>
        <mxCell id="u4_8pnW_TPjF4UHphQ5u-76" value="5" style="rounded=0;whiteSpace=wrap;html=1;fillColor=#dae8fc;strokeColor=#6c8ebf;" vertex="1" parent="TEnfDju9ZT69KUJdj1cd-1">
          <mxGeometry x="760" y="440" width="40" height="40" as="geometry" />
        </mxCell>
        <mxCell id="u4_8pnW_TPjF4UHphQ5u-146" value="1" style="edgeStyle=orthogonalEdgeStyle;rounded=0;jumpStyle=sharp;orthogonalLoop=1;jettySize=auto;html=1;startArrow=none;startFill=0;strokeWidth=1;" edge="1" parent="TEnfDju9ZT69KUJdj1cd-1" source="u4_8pnW_TPjF4UHphQ5u-77" target="u4_8pnW_TPjF4UHphQ5u-79">
          <mxGeometry relative="1" as="geometry" />
        </mxCell>
        <mxCell id="u4_8pnW_TPjF4UHphQ5u-77" value="6" style="rounded=0;whiteSpace=wrap;html=1;fillColor=#dae8fc;strokeColor=#6c8ebf;" vertex="1" parent="TEnfDju9ZT69KUJdj1cd-1">
          <mxGeometry x="1040" y="360" width="40" height="40" as="geometry" />
        </mxCell>
        <mxCell id="u4_8pnW_TPjF4UHphQ5u-147" value="2" style="edgeStyle=orthogonalEdgeStyle;rounded=0;jumpStyle=sharp;orthogonalLoop=1;jettySize=auto;html=1;startArrow=none;startFill=0;strokeWidth=1;" edge="1" parent="TEnfDju9ZT69KUJdj1cd-1" source="u4_8pnW_TPjF4UHphQ5u-78" target="u4_8pnW_TPjF4UHphQ5u-80">
          <mxGeometry relative="1" as="geometry">
            <Array as="points">
              <mxPoint x="1100" y="410" />
              <mxPoint x="1020" y="410" />
            </Array>
          </mxGeometry>
        </mxCell>
        <mxCell id="u4_8pnW_TPjF4UHphQ5u-78" value="7" style="rounded=0;whiteSpace=wrap;html=1;fillColor=#dae8fc;strokeColor=#6c8ebf;" vertex="1" parent="TEnfDju9ZT69KUJdj1cd-1">
          <mxGeometry x="1080" y="360" width="40" height="40" as="geometry" />
        </mxCell>
        <mxCell id="u4_8pnW_TPjF4UHphQ5u-151" value="3" style="edgeStyle=orthogonalEdgeStyle;rounded=0;jumpStyle=sharp;orthogonalLoop=1;jettySize=auto;html=1;startArrow=none;startFill=0;strokeWidth=1;" edge="1" parent="TEnfDju9ZT69KUJdj1cd-1" source="u4_8pnW_TPjF4UHphQ5u-79" target="u4_8pnW_TPjF4UHphQ5u-91">
          <mxGeometry relative="1" as="geometry" />
        </mxCell>
        <mxCell id="u4_8pnW_TPjF4UHphQ5u-79" value="6" style="rounded=0;whiteSpace=wrap;html=1;fillColor=#dae8fc;strokeColor=#6c8ebf;" vertex="1" parent="TEnfDju9ZT69KUJdj1cd-1">
          <mxGeometry x="960" y="440" width="40" height="40" as="geometry" />
        </mxCell>
        <mxCell id="u4_8pnW_TPjF4UHphQ5u-152" value="4" style="edgeStyle=orthogonalEdgeStyle;rounded=0;jumpStyle=sharp;orthogonalLoop=1;jettySize=auto;html=1;startArrow=none;startFill=0;strokeWidth=1;" edge="1" parent="TEnfDju9ZT69KUJdj1cd-1" source="u4_8pnW_TPjF4UHphQ5u-80" target="u4_8pnW_TPjF4UHphQ5u-92">
          <mxGeometry relative="1" as="geometry">
            <Array as="points">
              <mxPoint x="1020" y="490" />
              <mxPoint x="940" y="490" />
            </Array>
          </mxGeometry>
        </mxCell>
        <mxCell id="u4_8pnW_TPjF4UHphQ5u-80" value="7" style="rounded=0;whiteSpace=wrap;html=1;fillColor=#dae8fc;strokeColor=#6c8ebf;" vertex="1" parent="TEnfDju9ZT69KUJdj1cd-1">
          <mxGeometry x="1000" y="440" width="40" height="40" as="geometry" />
        </mxCell>
        <mxCell id="u4_8pnW_TPjF4UHphQ5u-153" value="5" style="edgeStyle=orthogonalEdgeStyle;rounded=0;jumpStyle=sharp;orthogonalLoop=1;jettySize=auto;html=1;startArrow=none;startFill=0;strokeWidth=1;" edge="1" parent="TEnfDju9ZT69KUJdj1cd-1" source="u4_8pnW_TPjF4UHphQ5u-81" target="u4_8pnW_TPjF4UHphQ5u-93">
          <mxGeometry relative="1" as="geometry">
            <Array as="points">
              <mxPoint x="1060" y="500" />
              <mxPoint x="980" y="500" />
            </Array>
          </mxGeometry>
        </mxCell>
        <mxCell id="u4_8pnW_TPjF4UHphQ5u-81" value="10" style="rounded=0;whiteSpace=wrap;html=1;fillColor=#dae8fc;strokeColor=#6c8ebf;" vertex="1" parent="TEnfDju9ZT69KUJdj1cd-1">
          <mxGeometry x="1040" y="440" width="40" height="40" as="geometry" />
        </mxCell>
        <mxCell id="u4_8pnW_TPjF4UHphQ5u-158" value="4" style="edgeStyle=orthogonalEdgeStyle;rounded=0;jumpStyle=sharp;orthogonalLoop=1;jettySize=auto;html=1;startArrow=none;startFill=0;strokeWidth=1;" edge="1" parent="TEnfDju9ZT69KUJdj1cd-1" source="u4_8pnW_TPjF4UHphQ5u-88" target="u4_8pnW_TPjF4UHphQ5u-112">
          <mxGeometry relative="1" as="geometry">
            <Array as="points">
              <mxPoint x="820" y="650" />
              <mxPoint x="485" y="650" />
            </Array>
          </mxGeometry>
        </mxCell>
        <mxCell id="u4_8pnW_TPjF4UHphQ5u-88" value="4" style="rounded=0;whiteSpace=wrap;html=1;fillColor=#dae8fc;strokeColor=#6c8ebf;" vertex="1" parent="TEnfDju9ZT69KUJdj1cd-1">
          <mxGeometry x="800" y="560" width="40" height="40" as="geometry" />
        </mxCell>
        <mxCell id="u4_8pnW_TPjF4UHphQ5u-166" value="12" style="edgeStyle=orthogonalEdgeStyle;rounded=0;jumpStyle=sharp;orthogonalLoop=1;jettySize=auto;html=1;startArrow=none;startFill=0;strokeWidth=1;" edge="1" parent="TEnfDju9ZT69KUJdj1cd-1" source="u4_8pnW_TPjF4UHphQ5u-89" target="u4_8pnW_TPjF4UHphQ5u-113">
          <mxGeometry relative="1" as="geometry">
            <Array as="points">
              <mxPoint x="1020" y="700" />
              <mxPoint x="805" y="700" />
            </Array>
          </mxGeometry>
        </mxCell>
        <mxCell id="u4_8pnW_TPjF4UHphQ5u-89" value="12" style="rounded=0;whiteSpace=wrap;html=1;fillColor=#dae8fc;strokeColor=#6c8ebf;" vertex="1" parent="TEnfDju9ZT69KUJdj1cd-1">
          <mxGeometry x="1000" y="560" width="40" height="40" as="geometry" />
        </mxCell>
        <mxCell id="u4_8pnW_TPjF4UHphQ5u-159" value="5" style="edgeStyle=orthogonalEdgeStyle;rounded=0;jumpStyle=sharp;orthogonalLoop=1;jettySize=auto;html=1;startArrow=none;startFill=0;strokeWidth=1;" edge="1" parent="TEnfDju9ZT69KUJdj1cd-1" source="u4_8pnW_TPjF4UHphQ5u-90" target="u4_8pnW_TPjF4UHphQ5u-114">
          <mxGeometry relative="1" as="geometry">
            <Array as="points">
              <mxPoint x="860" y="660" />
              <mxPoint x="525" y="660" />
            </Array>
          </mxGeometry>
        </mxCell>
        <mxCell id="u4_8pnW_TPjF4UHphQ5u-90" value="5" style="rounded=0;whiteSpace=wrap;html=1;fillColor=#dae8fc;strokeColor=#6c8ebf;" vertex="1" parent="TEnfDju9ZT69KUJdj1cd-1">
          <mxGeometry x="840" y="560" width="40" height="40" as="geometry" />
        </mxCell>
        <mxCell id="u4_8pnW_TPjF4UHphQ5u-160" value="6" style="edgeStyle=orthogonalEdgeStyle;rounded=0;jumpStyle=sharp;orthogonalLoop=1;jettySize=auto;html=1;startArrow=none;startFill=0;strokeWidth=1;" edge="1" parent="TEnfDju9ZT69KUJdj1cd-1" source="u4_8pnW_TPjF4UHphQ5u-91" target="u4_8pnW_TPjF4UHphQ5u-115">
          <mxGeometry x="0.011" y="-20" relative="1" as="geometry">
            <Array as="points">
              <mxPoint x="900" y="670" />
              <mxPoint x="565" y="670" />
            </Array>
            <mxPoint as="offset" />
          </mxGeometry>
        </mxCell>
        <mxCell id="u4_8pnW_TPjF4UHphQ5u-91" value="6" style="rounded=0;whiteSpace=wrap;html=1;fillColor=#dae8fc;strokeColor=#6c8ebf;" vertex="1" parent="TEnfDju9ZT69KUJdj1cd-1">
          <mxGeometry x="880" y="560" width="40" height="40" as="geometry" />
        </mxCell>
        <mxCell id="u4_8pnW_TPjF4UHphQ5u-161" value="7" style="edgeStyle=orthogonalEdgeStyle;rounded=0;jumpStyle=sharp;orthogonalLoop=1;jettySize=auto;html=1;startArrow=none;startFill=0;strokeWidth=1;" edge="1" parent="TEnfDju9ZT69KUJdj1cd-1" source="u4_8pnW_TPjF4UHphQ5u-92" target="u4_8pnW_TPjF4UHphQ5u-116">
          <mxGeometry relative="1" as="geometry">
            <Array as="points">
              <mxPoint x="940" y="680" />
              <mxPoint x="605" y="680" />
            </Array>
          </mxGeometry>
        </mxCell>
        <mxCell id="u4_8pnW_TPjF4UHphQ5u-92" value="7" style="rounded=0;whiteSpace=wrap;html=1;fillColor=#dae8fc;strokeColor=#6c8ebf;" vertex="1" parent="TEnfDju9ZT69KUJdj1cd-1">
          <mxGeometry x="920" y="560" width="40" height="40" as="geometry" />
        </mxCell>
        <mxCell id="u4_8pnW_TPjF4UHphQ5u-165" value="10" style="edgeStyle=orthogonalEdgeStyle;rounded=0;jumpStyle=sharp;orthogonalLoop=1;jettySize=auto;html=1;startArrow=none;startFill=0;strokeWidth=1;" edge="1" parent="TEnfDju9ZT69KUJdj1cd-1" source="u4_8pnW_TPjF4UHphQ5u-93" target="u4_8pnW_TPjF4UHphQ5u-117">
          <mxGeometry relative="1" as="geometry">
            <Array as="points">
              <mxPoint x="980" y="690" />
              <mxPoint x="725" y="690" />
            </Array>
          </mxGeometry>
        </mxCell>
        <mxCell id="u4_8pnW_TPjF4UHphQ5u-93" value="10" style="rounded=0;whiteSpace=wrap;html=1;fillColor=#dae8fc;strokeColor=#6c8ebf;" vertex="1" parent="TEnfDju9ZT69KUJdj1cd-1">
          <mxGeometry x="960" y="560" width="40" height="40" as="geometry" />
        </mxCell>
        <mxCell id="u4_8pnW_TPjF4UHphQ5u-106" value="2" style="rounded=0;whiteSpace=wrap;html=1;fillColor=#dae8fc;strokeColor=#6c8ebf;" vertex="1" parent="TEnfDju9ZT69KUJdj1cd-1">
          <mxGeometry x="385" y="720" width="40" height="40" as="geometry" />
        </mxCell>
        <mxCell id="u4_8pnW_TPjF4UHphQ5u-107" value="9" style="rounded=0;whiteSpace=wrap;html=1;fillColor=#dae8fc;strokeColor=#6c8ebf;" vertex="1" parent="TEnfDju9ZT69KUJdj1cd-1">
          <mxGeometry x="665" y="720" width="40" height="40" as="geometry" />
        </mxCell>
        <mxCell id="u4_8pnW_TPjF4UHphQ5u-108" value="1" style="rounded=0;whiteSpace=wrap;html=1;fillColor=#dae8fc;strokeColor=#6c8ebf;" vertex="1" parent="TEnfDju9ZT69KUJdj1cd-1">
          <mxGeometry x="345" y="720" width="40" height="40" as="geometry" />
        </mxCell>
        <mxCell id="u4_8pnW_TPjF4UHphQ5u-109" value="11" style="rounded=0;whiteSpace=wrap;html=1;fillColor=#dae8fc;strokeColor=#6c8ebf;" vertex="1" parent="TEnfDju9ZT69KUJdj1cd-1">
          <mxGeometry x="745" y="720" width="40" height="40" as="geometry" />
        </mxCell>
        <mxCell id="u4_8pnW_TPjF4UHphQ5u-110" value="8" style="rounded=0;whiteSpace=wrap;html=1;fillColor=#dae8fc;strokeColor=#6c8ebf;" vertex="1" parent="TEnfDju9ZT69KUJdj1cd-1">
          <mxGeometry x="625" y="720" width="40" height="40" as="geometry" />
        </mxCell>
        <mxCell id="u4_8pnW_TPjF4UHphQ5u-111" value="3" style="rounded=0;whiteSpace=wrap;html=1;fillColor=#dae8fc;strokeColor=#6c8ebf;" vertex="1" parent="TEnfDju9ZT69KUJdj1cd-1">
          <mxGeometry x="425" y="720" width="40" height="40" as="geometry" />
        </mxCell>
        <mxCell id="u4_8pnW_TPjF4UHphQ5u-112" value="4" style="rounded=0;whiteSpace=wrap;html=1;fillColor=#dae8fc;strokeColor=#6c8ebf;" vertex="1" parent="TEnfDju9ZT69KUJdj1cd-1">
          <mxGeometry x="465" y="720" width="40" height="40" as="geometry" />
        </mxCell>
        <mxCell id="u4_8pnW_TPjF4UHphQ5u-113" value="12" style="rounded=0;whiteSpace=wrap;html=1;fillColor=#dae8fc;strokeColor=#6c8ebf;" vertex="1" parent="TEnfDju9ZT69KUJdj1cd-1">
          <mxGeometry x="785" y="720" width="40" height="40" as="geometry" />
        </mxCell>
        <mxCell id="u4_8pnW_TPjF4UHphQ5u-114" value="5" style="rounded=0;whiteSpace=wrap;html=1;fillColor=#dae8fc;strokeColor=#6c8ebf;" vertex="1" parent="TEnfDju9ZT69KUJdj1cd-1">
          <mxGeometry x="505" y="720" width="40" height="40" as="geometry" />
        </mxCell>
        <mxCell id="u4_8pnW_TPjF4UHphQ5u-115" value="6" style="rounded=0;whiteSpace=wrap;html=1;fillColor=#dae8fc;strokeColor=#6c8ebf;" vertex="1" parent="TEnfDju9ZT69KUJdj1cd-1">
          <mxGeometry x="545" y="720" width="40" height="40" as="geometry" />
        </mxCell>
        <mxCell id="u4_8pnW_TPjF4UHphQ5u-116" value="7" style="rounded=0;whiteSpace=wrap;html=1;fillColor=#dae8fc;strokeColor=#6c8ebf;" vertex="1" parent="TEnfDju9ZT69KUJdj1cd-1">
          <mxGeometry x="585" y="720" width="40" height="40" as="geometry" />
        </mxCell>
        <mxCell id="u4_8pnW_TPjF4UHphQ5u-117" value="10" style="rounded=0;whiteSpace=wrap;html=1;fillColor=#dae8fc;strokeColor=#6c8ebf;" vertex="1" parent="TEnfDju9ZT69KUJdj1cd-1">
          <mxGeometry x="705" y="720" width="40" height="40" as="geometry" />
        </mxCell>
        <mxCell id="u4_8pnW_TPjF4UHphQ5u-118" value="" style="endArrow=none;html=1;rounded=0;strokeWidth=3;dashed=1;dashPattern=1 1;" edge="1" parent="TEnfDju9ZT69KUJdj1cd-1">
          <mxGeometry width="50" height="50" relative="1" as="geometry">
            <mxPoint x="890" y="180" as="sourcePoint" />
            <mxPoint x="950" y="100" as="targetPoint" />
            <Array as="points">
              <mxPoint x="920" y="180" />
              <mxPoint x="920" y="100" />
            </Array>
          </mxGeometry>
        </mxCell>
        <mxCell id="u4_8pnW_TPjF4UHphQ5u-119" value="" style="endArrow=none;html=1;rounded=0;strokeWidth=3;dashed=1;dashPattern=1 1;" edge="1" parent="TEnfDju9ZT69KUJdj1cd-1">
          <mxGeometry width="50" height="50" relative="1" as="geometry">
            <mxPoint x="810" y="260" as="sourcePoint" />
            <mxPoint x="870" y="180" as="targetPoint" />
            <Array as="points">
              <mxPoint x="840" y="260" />
              <mxPoint x="840" y="180" />
            </Array>
          </mxGeometry>
        </mxCell>
        <mxCell id="u4_8pnW_TPjF4UHphQ5u-120" value="" style="endArrow=none;html=1;rounded=0;strokeWidth=3;dashed=1;dashPattern=1 1;" edge="1" parent="TEnfDju9ZT69KUJdj1cd-1">
          <mxGeometry width="50" height="50" relative="1" as="geometry">
            <mxPoint x="1050" y="260" as="sourcePoint" />
            <mxPoint x="1110" y="180" as="targetPoint" />
            <Array as="points">
              <mxPoint x="1080" y="260" />
              <mxPoint x="1080" y="180" />
            </Array>
          </mxGeometry>
        </mxCell>
        <mxCell id="u4_8pnW_TPjF4UHphQ5u-121" value="" style="endArrow=none;html=1;rounded=0;strokeWidth=3;dashed=1;dashPattern=1 1;" edge="1" parent="TEnfDju9ZT69KUJdj1cd-1">
          <mxGeometry width="50" height="50" relative="1" as="geometry">
            <mxPoint x="370" y="260" as="sourcePoint" />
            <mxPoint x="430" y="180" as="targetPoint" />
            <Array as="points">
              <mxPoint x="400" y="260" />
              <mxPoint x="400" y="180" />
            </Array>
          </mxGeometry>
        </mxCell>
        <mxCell id="u4_8pnW_TPjF4UHphQ5u-122" value="" style="endArrow=none;html=1;rounded=0;strokeWidth=3;dashed=1;dashPattern=1 1;" edge="1" parent="TEnfDju9ZT69KUJdj1cd-1">
          <mxGeometry width="50" height="50" relative="1" as="geometry">
            <mxPoint x="130" y="260" as="sourcePoint" />
            <mxPoint x="190" y="180" as="targetPoint" />
            <Array as="points">
              <mxPoint x="160" y="260" />
              <mxPoint x="160" y="180" />
            </Array>
          </mxGeometry>
        </mxCell>
      </root>
    </mxGraphModel>
  </diagram>
  <diagram id="uMJogRqFVkoLgcgNJTdw" name="Куча">
    <mxGraphModel dx="979" dy="572" grid="1" gridSize="10" guides="1" tooltips="1" connect="1" arrows="1" fold="1" page="1" pageScale="1" pageWidth="1169" pageHeight="827" math="0" shadow="0">
      <root>
        <mxCell id="0" />
        <mxCell id="1" parent="0" />
        <mxCell id="B00TYbioaDx2_9ce5mAH-14" style="rounded=0;orthogonalLoop=1;jettySize=auto;html=1;" edge="1" parent="1" source="B00TYbioaDx2_9ce5mAH-2" target="B00TYbioaDx2_9ce5mAH-3">
          <mxGeometry relative="1" as="geometry" />
        </mxCell>
        <mxCell id="B00TYbioaDx2_9ce5mAH-15" style="rounded=0;orthogonalLoop=1;jettySize=auto;html=1;" edge="1" parent="1" source="B00TYbioaDx2_9ce5mAH-2" target="B00TYbioaDx2_9ce5mAH-4">
          <mxGeometry relative="1" as="geometry" />
        </mxCell>
        <mxCell id="B00TYbioaDx2_9ce5mAH-2" value="15 [0]" style="rounded=1;whiteSpace=wrap;html=1;" vertex="1" parent="1">
          <mxGeometry x="520" y="40" width="80" height="80" as="geometry" />
        </mxCell>
        <mxCell id="B00TYbioaDx2_9ce5mAH-16" style="edgeStyle=none;shape=connector;rounded=0;orthogonalLoop=1;jettySize=auto;html=1;strokeColor=default;align=center;verticalAlign=middle;fontFamily=Helvetica;fontSize=11;fontColor=default;labelBackgroundColor=default;endArrow=classic;" edge="1" parent="1" source="B00TYbioaDx2_9ce5mAH-3" target="B00TYbioaDx2_9ce5mAH-6">
          <mxGeometry relative="1" as="geometry" />
        </mxCell>
        <mxCell id="B00TYbioaDx2_9ce5mAH-17" style="shape=connector;rounded=0;orthogonalLoop=1;jettySize=auto;html=1;strokeColor=default;align=center;verticalAlign=middle;fontFamily=Helvetica;fontSize=11;fontColor=default;labelBackgroundColor=default;endArrow=classic;" edge="1" parent="1" source="B00TYbioaDx2_9ce5mAH-3" target="B00TYbioaDx2_9ce5mAH-7">
          <mxGeometry relative="1" as="geometry" />
        </mxCell>
        <mxCell id="B00TYbioaDx2_9ce5mAH-3" value="13 [1]" style="rounded=1;whiteSpace=wrap;html=1;" vertex="1" parent="1">
          <mxGeometry x="360" y="160" width="80" height="80" as="geometry" />
        </mxCell>
        <mxCell id="B00TYbioaDx2_9ce5mAH-31" style="edgeStyle=none;shape=connector;rounded=0;orthogonalLoop=1;jettySize=auto;html=1;strokeColor=default;align=center;verticalAlign=middle;fontFamily=Helvetica;fontSize=11;fontColor=default;labelBackgroundColor=default;endArrow=classic;" edge="1" parent="1" source="B00TYbioaDx2_9ce5mAH-4" target="B00TYbioaDx2_9ce5mAH-30">
          <mxGeometry relative="1" as="geometry" />
        </mxCell>
        <mxCell id="B00TYbioaDx2_9ce5mAH-32" style="edgeStyle=none;shape=connector;rounded=0;orthogonalLoop=1;jettySize=auto;html=1;strokeColor=default;align=center;verticalAlign=middle;fontFamily=Helvetica;fontSize=11;fontColor=default;labelBackgroundColor=default;endArrow=classic;" edge="1" parent="1" source="B00TYbioaDx2_9ce5mAH-4" target="B00TYbioaDx2_9ce5mAH-29">
          <mxGeometry relative="1" as="geometry" />
        </mxCell>
        <mxCell id="B00TYbioaDx2_9ce5mAH-4" value="10 [2]" style="rounded=1;whiteSpace=wrap;html=1;" vertex="1" parent="1">
          <mxGeometry x="680" y="160" width="80" height="80" as="geometry" />
        </mxCell>
        <mxCell id="B00TYbioaDx2_9ce5mAH-6" value="7 [4]" style="rounded=1;whiteSpace=wrap;html=1;" vertex="1" parent="1">
          <mxGeometry x="440" y="280" width="80" height="80" as="geometry" />
        </mxCell>
        <mxCell id="B00TYbioaDx2_9ce5mAH-34" style="edgeStyle=none;shape=connector;rounded=0;orthogonalLoop=1;jettySize=auto;html=1;strokeColor=default;align=center;verticalAlign=middle;fontFamily=Helvetica;fontSize=11;fontColor=default;labelBackgroundColor=default;endArrow=classic;" edge="1" parent="1" source="B00TYbioaDx2_9ce5mAH-7" target="B00TYbioaDx2_9ce5mAH-33">
          <mxGeometry relative="1" as="geometry" />
        </mxCell>
        <mxCell id="B00TYbioaDx2_9ce5mAH-7" value="12 [3]" style="rounded=1;whiteSpace=wrap;html=1;" vertex="1" parent="1">
          <mxGeometry x="280" y="280" width="80" height="80" as="geometry" />
        </mxCell>
        <mxCell id="B00TYbioaDx2_9ce5mAH-18" value="2 * 0 + 1 = 1" style="edgeStyle=orthogonalEdgeStyle;shape=connector;rounded=0;orthogonalLoop=1;jettySize=auto;html=1;strokeColor=default;align=center;verticalAlign=middle;fontFamily=Helvetica;fontSize=11;fontColor=default;labelBackgroundColor=default;endArrow=classic;" edge="1" parent="1" source="B00TYbioaDx2_9ce5mAH-9" target="B00TYbioaDx2_9ce5mAH-10">
          <mxGeometry relative="1" as="geometry">
            <Array as="points">
              <mxPoint x="320" y="640" />
              <mxPoint x="400" y="640" />
            </Array>
          </mxGeometry>
        </mxCell>
        <mxCell id="B00TYbioaDx2_9ce5mAH-19" value="2 * 0 + 2 = 2" style="edgeStyle=orthogonalEdgeStyle;shape=connector;rounded=0;orthogonalLoop=1;jettySize=auto;html=1;strokeColor=default;align=center;verticalAlign=middle;fontFamily=Helvetica;fontSize=11;fontColor=default;labelBackgroundColor=default;endArrow=classic;" edge="1" parent="1" source="B00TYbioaDx2_9ce5mAH-9" target="B00TYbioaDx2_9ce5mAH-11">
          <mxGeometry relative="1" as="geometry">
            <Array as="points">
              <mxPoint x="320" y="620" />
              <mxPoint x="480" y="620" />
            </Array>
            <mxPoint as="offset" />
          </mxGeometry>
        </mxCell>
        <mxCell id="B00TYbioaDx2_9ce5mAH-9" value="15[0]" style="rounded=1;whiteSpace=wrap;html=1;" vertex="1" parent="1">
          <mxGeometry x="280" y="680" width="80" height="80" as="geometry" />
        </mxCell>
        <mxCell id="B00TYbioaDx2_9ce5mAH-20" value="2 * 1 + 1 = 3" style="edgeStyle=orthogonalEdgeStyle;shape=connector;rounded=0;orthogonalLoop=1;jettySize=auto;html=1;strokeColor=default;align=center;verticalAlign=middle;fontFamily=Helvetica;fontSize=11;fontColor=default;labelBackgroundColor=default;endArrow=classic;" edge="1" parent="1" source="B00TYbioaDx2_9ce5mAH-10" target="B00TYbioaDx2_9ce5mAH-13">
          <mxGeometry relative="1" as="geometry">
            <Array as="points">
              <mxPoint x="400" y="800" />
              <mxPoint x="560" y="800" />
            </Array>
          </mxGeometry>
        </mxCell>
        <mxCell id="B00TYbioaDx2_9ce5mAH-21" value="2 * 1 + 2 = 4" style="edgeStyle=orthogonalEdgeStyle;shape=connector;rounded=0;orthogonalLoop=1;jettySize=auto;html=1;strokeColor=default;align=center;verticalAlign=middle;fontFamily=Helvetica;fontSize=11;fontColor=default;labelBackgroundColor=default;endArrow=classic;" edge="1" parent="1" source="B00TYbioaDx2_9ce5mAH-10" target="B00TYbioaDx2_9ce5mAH-12">
          <mxGeometry relative="1" as="geometry">
            <Array as="points">
              <mxPoint x="400" y="820" />
              <mxPoint x="640" y="820" />
            </Array>
          </mxGeometry>
        </mxCell>
        <mxCell id="B00TYbioaDx2_9ce5mAH-10" value="13 [1]" style="rounded=1;whiteSpace=wrap;html=1;" vertex="1" parent="1">
          <mxGeometry x="360" y="680" width="80" height="80" as="geometry" />
        </mxCell>
        <mxCell id="B00TYbioaDx2_9ce5mAH-25" value="2 * 2 + 1 = 5" style="edgeStyle=orthogonalEdgeStyle;shape=connector;rounded=0;orthogonalLoop=1;jettySize=auto;html=1;strokeColor=default;align=center;verticalAlign=middle;fontFamily=Helvetica;fontSize=11;fontColor=default;labelBackgroundColor=default;endArrow=classic;" edge="1" parent="1" source="B00TYbioaDx2_9ce5mAH-11" target="B00TYbioaDx2_9ce5mAH-22">
          <mxGeometry relative="1" as="geometry">
            <Array as="points">
              <mxPoint x="500" y="640" />
              <mxPoint x="720" y="640" />
            </Array>
          </mxGeometry>
        </mxCell>
        <mxCell id="B00TYbioaDx2_9ce5mAH-26" value="2 * 2 + 1 = 6" style="edgeStyle=orthogonalEdgeStyle;shape=connector;rounded=0;orthogonalLoop=1;jettySize=auto;html=1;strokeColor=default;align=center;verticalAlign=middle;fontFamily=Helvetica;fontSize=11;fontColor=default;labelBackgroundColor=default;endArrow=classic;" edge="1" parent="1" source="B00TYbioaDx2_9ce5mAH-11" target="B00TYbioaDx2_9ce5mAH-23">
          <mxGeometry relative="1" as="geometry">
            <Array as="points">
              <mxPoint x="500" y="620" />
              <mxPoint x="800" y="620" />
            </Array>
          </mxGeometry>
        </mxCell>
        <mxCell id="B00TYbioaDx2_9ce5mAH-11" value="10[2]" style="rounded=1;whiteSpace=wrap;html=1;" vertex="1" parent="1">
          <mxGeometry x="440" y="680" width="80" height="80" as="geometry" />
        </mxCell>
        <mxCell id="B00TYbioaDx2_9ce5mAH-12" value="7 [4]" style="rounded=1;whiteSpace=wrap;html=1;" vertex="1" parent="1">
          <mxGeometry x="600" y="680" width="80" height="80" as="geometry" />
        </mxCell>
        <mxCell id="B00TYbioaDx2_9ce5mAH-28" value="2 * 3 + 1 = 7" style="edgeStyle=orthogonalEdgeStyle;shape=connector;rounded=0;orthogonalLoop=1;jettySize=auto;html=1;strokeColor=default;align=center;verticalAlign=middle;fontFamily=Helvetica;fontSize=11;fontColor=default;labelBackgroundColor=default;endArrow=classic;" edge="1" parent="1" source="B00TYbioaDx2_9ce5mAH-13" target="B00TYbioaDx2_9ce5mAH-27">
          <mxGeometry relative="1" as="geometry">
            <Array as="points">
              <mxPoint x="580" y="840" />
              <mxPoint x="880" y="840" />
            </Array>
          </mxGeometry>
        </mxCell>
        <mxCell id="B00TYbioaDx2_9ce5mAH-13" value="12 [3]" style="rounded=1;whiteSpace=wrap;html=1;" vertex="1" parent="1">
          <mxGeometry x="520" y="680" width="80" height="80" as="geometry" />
        </mxCell>
        <mxCell id="B00TYbioaDx2_9ce5mAH-22" value="8 [5]" style="rounded=1;whiteSpace=wrap;html=1;" vertex="1" parent="1">
          <mxGeometry x="680" y="680" width="80" height="80" as="geometry" />
        </mxCell>
        <mxCell id="B00TYbioaDx2_9ce5mAH-23" value="3 [6]" style="rounded=1;whiteSpace=wrap;html=1;" vertex="1" parent="1">
          <mxGeometry x="760" y="680" width="80" height="80" as="geometry" />
        </mxCell>
        <mxCell id="B00TYbioaDx2_9ce5mAH-27" value="1 [7]" style="rounded=1;whiteSpace=wrap;html=1;" vertex="1" parent="1">
          <mxGeometry x="840" y="680" width="80" height="80" as="geometry" />
        </mxCell>
        <mxCell id="B00TYbioaDx2_9ce5mAH-29" value="3 [6]" style="rounded=1;whiteSpace=wrap;html=1;" vertex="1" parent="1">
          <mxGeometry x="760" y="280" width="80" height="80" as="geometry" />
        </mxCell>
        <mxCell id="B00TYbioaDx2_9ce5mAH-30" value="8 [5]" style="rounded=1;whiteSpace=wrap;html=1;" vertex="1" parent="1">
          <mxGeometry x="600" y="280" width="80" height="80" as="geometry" />
        </mxCell>
        <mxCell id="B00TYbioaDx2_9ce5mAH-33" value="1 [7]&amp;nbsp;" style="rounded=1;whiteSpace=wrap;html=1;" vertex="1" parent="1">
          <mxGeometry x="200" y="400" width="80" height="80" as="geometry" />
        </mxCell>
        <mxCell id="B00TYbioaDx2_9ce5mAH-40" value="2" style="triangle;whiteSpace=wrap;html=1;fontFamily=Helvetica;fontSize=11;labelBackgroundColor=default;direction=south;fillColor=#e1d5e7;strokeColor=#9673a6;" vertex="1" parent="1">
          <mxGeometry x="800" y="660" width="40" height="30" as="geometry" />
        </mxCell>
        <mxCell id="B00TYbioaDx2_9ce5mAH-41" value="1" style="triangle;whiteSpace=wrap;html=1;fontFamily=Helvetica;fontSize=11;labelBackgroundColor=default;direction=south;fillColor=#e1d5e7;strokeColor=#9673a6;" vertex="1" parent="1">
          <mxGeometry x="880" y="660" width="40" height="30" as="geometry" />
        </mxCell>
        <mxCell id="B00TYbioaDx2_9ce5mAH-43" value="2" style="triangle;whiteSpace=wrap;html=1;fontFamily=Helvetica;fontSize=11;labelBackgroundColor=default;direction=south;fillColor=#e1d5e7;strokeColor=#9673a6;" vertex="1" parent="1">
          <mxGeometry x="720" y="660" width="40" height="30" as="geometry" />
        </mxCell>
        <mxCell id="B00TYbioaDx2_9ce5mAH-44" value="3" style="triangle;whiteSpace=wrap;html=1;fontFamily=Helvetica;fontSize=11;labelBackgroundColor=default;direction=north;fillColor=#d5e8d4;strokeColor=#82b366;" vertex="1" parent="1">
          <mxGeometry x="400" y="750" width="40" height="30" as="geometry" />
        </mxCell>
        <mxCell id="B00TYbioaDx2_9ce5mAH-45" value="3" style="triangle;whiteSpace=wrap;html=1;fontFamily=Helvetica;fontSize=11;labelBackgroundColor=default;direction=south;fillColor=#e1d5e7;strokeColor=#9673a6;" vertex="1" parent="1">
          <mxGeometry x="640" y="660" width="40" height="30" as="geometry" />
        </mxCell>
        <mxCell id="B00TYbioaDx2_9ce5mAH-46" value="3" style="triangle;whiteSpace=wrap;html=1;fontFamily=Helvetica;fontSize=11;labelBackgroundColor=default;direction=south;fillColor=#e1d5e7;strokeColor=#9673a6;" vertex="1" parent="1">
          <mxGeometry x="560" y="660" width="40" height="30" as="geometry" />
        </mxCell>
        <mxCell id="B00TYbioaDx2_9ce5mAH-48" value="4" style="triangle;whiteSpace=wrap;html=1;fontFamily=Helvetica;fontSize=11;labelBackgroundColor=default;direction=south;fillColor=#e1d5e7;strokeColor=#9673a6;" vertex="1" parent="1">
          <mxGeometry x="480" y="660" width="40" height="30" as="geometry" />
        </mxCell>
        <mxCell id="B00TYbioaDx2_9ce5mAH-49" value="4" style="triangle;whiteSpace=wrap;html=1;fontFamily=Helvetica;fontSize=11;labelBackgroundColor=default;direction=south;fillColor=#e1d5e7;strokeColor=#9673a6;" vertex="1" parent="1">
          <mxGeometry x="400" y="660" width="40" height="30" as="geometry" />
        </mxCell>
        <mxCell id="B00TYbioaDx2_9ce5mAH-50" value="4" style="triangle;whiteSpace=wrap;html=1;fontFamily=Helvetica;fontSize=11;labelBackgroundColor=default;direction=north;fillColor=#d5e8d4;strokeColor=#82b366;" vertex="1" parent="1">
          <mxGeometry x="320" y="750" width="40" height="30" as="geometry" />
        </mxCell>
        <mxCell id="B00TYbioaDx2_9ce5mAH-51" value="2" style="triangle;whiteSpace=wrap;html=1;fontFamily=Helvetica;fontSize=11;labelBackgroundColor=default;direction=north;fillColor=#d5e8d4;strokeColor=#82b366;" vertex="1" parent="1">
          <mxGeometry x="480" y="750" width="40" height="30" as="geometry" />
        </mxCell>
        <mxCell id="B00TYbioaDx2_9ce5mAH-52" value="1" style="triangle;whiteSpace=wrap;html=1;fontFamily=Helvetica;fontSize=11;labelBackgroundColor=default;direction=north;fillColor=#d5e8d4;strokeColor=#82b366;" vertex="1" parent="1">
          <mxGeometry x="560" y="750" width="40" height="30" as="geometry" />
        </mxCell>
      </root>
    </mxGraphModel>
  </diagram>
  <diagram id="1adP-p3rA3Ks5ui56J5N" name="Куча блок">
    <mxGraphModel dx="2029" dy="1186" grid="1" gridSize="10" guides="1" tooltips="1" connect="1" arrows="1" fold="1" page="1" pageScale="1" pageWidth="1169" pageHeight="827" math="0" shadow="0">
      <root>
        <mxCell id="0" />
        <mxCell id="1" parent="0" />
        <mxCell id="tvBp9m7x3tbelSFkrrXn-33" style="edgeStyle=none;shape=connector;rounded=0;orthogonalLoop=1;jettySize=auto;html=1;strokeColor=default;align=center;verticalAlign=middle;fontFamily=Helvetica;fontSize=11;fontColor=default;labelBackgroundColor=default;endArrow=classic;" edge="1" parent="1" source="tvBp9m7x3tbelSFkrrXn-25" target="tvBp9m7x3tbelSFkrrXn-27">
          <mxGeometry relative="1" as="geometry" />
        </mxCell>
        <mxCell id="tvBp9m7x3tbelSFkrrXn-43" style="edgeStyle=none;shape=connector;rounded=0;orthogonalLoop=1;jettySize=auto;html=1;strokeColor=default;align=center;verticalAlign=middle;fontFamily=Helvetica;fontSize=11;fontColor=default;labelBackgroundColor=default;endArrow=classic;" edge="1" parent="1" source="tvBp9m7x3tbelSFkrrXn-25" target="tvBp9m7x3tbelSFkrrXn-42">
          <mxGeometry relative="1" as="geometry" />
        </mxCell>
        <mxCell id="tvBp9m7x3tbelSFkrrXn-25" value="Вызвать функцию makeHeap" style="rounded=1;whiteSpace=wrap;html=1;" vertex="1" parent="1">
          <mxGeometry x="80" y="320" width="120" height="40" as="geometry" />
        </mxCell>
        <mxCell id="tvBp9m7x3tbelSFkrrXn-32" style="edgeStyle=none;shape=connector;rounded=0;orthogonalLoop=1;jettySize=auto;html=1;strokeColor=default;align=center;verticalAlign=middle;fontFamily=Helvetica;fontSize=11;fontColor=default;labelBackgroundColor=default;endArrow=classic;" edge="1" parent="1" source="tvBp9m7x3tbelSFkrrXn-26" target="tvBp9m7x3tbelSFkrrXn-25">
          <mxGeometry relative="1" as="geometry" />
        </mxCell>
        <mxCell id="tvBp9m7x3tbelSFkrrXn-26" value="Начать цикл от&amp;nbsp;&lt;div&gt;i = n / 2 - 1&lt;/div&gt;" style="strokeWidth=2;html=1;shape=mxgraph.flowchart.loop_limit;whiteSpace=wrap;fontFamily=Helvetica;fontSize=11;fontColor=default;labelBackgroundColor=default;" vertex="1" parent="1">
          <mxGeometry x="80" y="240" width="120" height="40" as="geometry" />
        </mxCell>
        <mxCell id="tvBp9m7x3tbelSFkrrXn-34" style="edgeStyle=none;shape=connector;rounded=0;orthogonalLoop=1;jettySize=auto;html=1;strokeColor=default;align=center;verticalAlign=middle;fontFamily=Helvetica;fontSize=11;fontColor=default;labelBackgroundColor=default;endArrow=classic;" edge="1" parent="1" source="tvBp9m7x3tbelSFkrrXn-27" target="tvBp9m7x3tbelSFkrrXn-29">
          <mxGeometry relative="1" as="geometry" />
        </mxCell>
        <mxCell id="tvBp9m7x3tbelSFkrrXn-27" value="Завершить цикл если i равно 0" style="strokeWidth=2;html=1;shape=mxgraph.flowchart.loop_limit;whiteSpace=wrap;fontFamily=Helvetica;fontSize=11;fontColor=default;labelBackgroundColor=default;direction=west;" vertex="1" parent="1">
          <mxGeometry x="80" y="400" width="120" height="40" as="geometry" />
        </mxCell>
        <mxCell id="tvBp9m7x3tbelSFkrrXn-66" style="edgeStyle=none;shape=connector;rounded=0;orthogonalLoop=1;jettySize=auto;html=1;strokeColor=default;align=center;verticalAlign=middle;fontFamily=Helvetica;fontSize=11;fontColor=default;labelBackgroundColor=default;endArrow=classic;" edge="1" parent="1" source="tvBp9m7x3tbelSFkrrXn-28" target="tvBp9m7x3tbelSFkrrXn-42">
          <mxGeometry relative="1" as="geometry">
            <Array as="points">
              <mxPoint x="240" y="600" />
              <mxPoint x="240" y="280" />
            </Array>
          </mxGeometry>
        </mxCell>
        <mxCell id="tvBp9m7x3tbelSFkrrXn-28" value="Вызвать функцию makeHeap" style="rounded=1;whiteSpace=wrap;html=1;" vertex="1" parent="1">
          <mxGeometry x="80" y="640" width="120" height="40" as="geometry" />
        </mxCell>
        <mxCell id="tvBp9m7x3tbelSFkrrXn-35" style="edgeStyle=none;shape=connector;rounded=0;orthogonalLoop=1;jettySize=auto;html=1;strokeColor=default;align=center;verticalAlign=middle;fontFamily=Helvetica;fontSize=11;fontColor=default;labelBackgroundColor=default;endArrow=classic;" edge="1" parent="1" source="tvBp9m7x3tbelSFkrrXn-29" target="tvBp9m7x3tbelSFkrrXn-31">
          <mxGeometry relative="1" as="geometry" />
        </mxCell>
        <mxCell id="tvBp9m7x3tbelSFkrrXn-29" value="Начать цикл от&amp;nbsp;&lt;div&gt;i = n / 2 - 1&lt;/div&gt;" style="strokeWidth=2;html=1;shape=mxgraph.flowchart.loop_limit;whiteSpace=wrap;fontFamily=Helvetica;fontSize=11;fontColor=default;labelBackgroundColor=default;" vertex="1" parent="1">
          <mxGeometry x="80" y="480" width="120" height="40" as="geometry" />
        </mxCell>
        <mxCell id="tvBp9m7x3tbelSFkrrXn-41" style="edgeStyle=none;shape=connector;rounded=0;orthogonalLoop=1;jettySize=auto;html=1;strokeColor=default;align=center;verticalAlign=middle;fontFamily=Helvetica;fontSize=11;fontColor=default;labelBackgroundColor=default;endArrow=classic;" edge="1" parent="1" source="tvBp9m7x3tbelSFkrrXn-30" target="tvBp9m7x3tbelSFkrrXn-38">
          <mxGeometry relative="1" as="geometry" />
        </mxCell>
        <mxCell id="tvBp9m7x3tbelSFkrrXn-30" value="Завершить цикл если i равно 0" style="strokeWidth=2;html=1;shape=mxgraph.flowchart.loop_limit;whiteSpace=wrap;fontFamily=Helvetica;fontSize=11;fontColor=default;labelBackgroundColor=default;direction=west;" vertex="1" parent="1">
          <mxGeometry x="80" y="720" width="120" height="40" as="geometry" />
        </mxCell>
        <mxCell id="tvBp9m7x3tbelSFkrrXn-36" style="edgeStyle=none;shape=connector;rounded=0;orthogonalLoop=1;jettySize=auto;html=1;strokeColor=default;align=center;verticalAlign=middle;fontFamily=Helvetica;fontSize=11;fontColor=default;labelBackgroundColor=default;endArrow=classic;" edge="1" parent="1" source="tvBp9m7x3tbelSFkrrXn-31" target="tvBp9m7x3tbelSFkrrXn-28">
          <mxGeometry relative="1" as="geometry" />
        </mxCell>
        <mxCell id="tvBp9m7x3tbelSFkrrXn-31" value="Поменять 0 и i элементы массива" style="rounded=1;whiteSpace=wrap;html=1;" vertex="1" parent="1">
          <mxGeometry x="80" y="560" width="120" height="40" as="geometry" />
        </mxCell>
        <mxCell id="tvBp9m7x3tbelSFkrrXn-37" style="edgeStyle=none;shape=connector;rounded=0;orthogonalLoop=1;jettySize=auto;html=1;strokeColor=default;align=center;verticalAlign=middle;fontFamily=Helvetica;fontSize=11;fontColor=default;labelBackgroundColor=default;endArrow=classic;" edge="1" parent="1" source="tvBp9m7x3tbelSFkrrXn-28" target="tvBp9m7x3tbelSFkrrXn-30">
          <mxGeometry relative="1" as="geometry" />
        </mxCell>
        <mxCell id="tvBp9m7x3tbelSFkrrXn-38" value="Конец" style="ellipse;whiteSpace=wrap;html=1;" vertex="1" parent="1">
          <mxGeometry x="80" y="800" width="120" height="80" as="geometry" />
        </mxCell>
        <mxCell id="tvBp9m7x3tbelSFkrrXn-40" style="edgeStyle=none;shape=connector;rounded=0;orthogonalLoop=1;jettySize=auto;html=1;strokeColor=default;align=center;verticalAlign=middle;fontFamily=Helvetica;fontSize=11;fontColor=default;labelBackgroundColor=default;endArrow=classic;" edge="1" parent="1" source="tvBp9m7x3tbelSFkrrXn-39" target="tvBp9m7x3tbelSFkrrXn-26">
          <mxGeometry relative="1" as="geometry" />
        </mxCell>
        <mxCell id="tvBp9m7x3tbelSFkrrXn-39" value="Начало" style="ellipse;whiteSpace=wrap;html=1;" vertex="1" parent="1">
          <mxGeometry x="80" y="120" width="120" height="80" as="geometry" />
        </mxCell>
        <mxCell id="tvBp9m7x3tbelSFkrrXn-52" style="edgeStyle=none;shape=connector;rounded=0;orthogonalLoop=1;jettySize=auto;html=1;strokeColor=default;align=center;verticalAlign=middle;fontFamily=Helvetica;fontSize=11;fontColor=default;labelBackgroundColor=default;endArrow=classic;" edge="1" parent="1" source="tvBp9m7x3tbelSFkrrXn-42" target="tvBp9m7x3tbelSFkrrXn-44">
          <mxGeometry relative="1" as="geometry" />
        </mxCell>
        <mxCell id="tvBp9m7x3tbelSFkrrXn-42" value="Начало функции makeHeap" style="ellipse;whiteSpace=wrap;html=1;" vertex="1" parent="1">
          <mxGeometry x="320" y="120" width="120" height="80" as="geometry" />
        </mxCell>
        <mxCell id="tvBp9m7x3tbelSFkrrXn-53" style="edgeStyle=none;shape=connector;rounded=0;orthogonalLoop=1;jettySize=auto;html=1;strokeColor=default;align=center;verticalAlign=middle;fontFamily=Helvetica;fontSize=11;fontColor=default;labelBackgroundColor=default;endArrow=classic;" edge="1" parent="1" source="tvBp9m7x3tbelSFkrrXn-44" target="tvBp9m7x3tbelSFkrrXn-45">
          <mxGeometry relative="1" as="geometry" />
        </mxCell>
        <mxCell id="tvBp9m7x3tbelSFkrrXn-44" value="Задать: &lt;br&gt;largest,&amp;nbsp;&lt;span style=&quot;background-color: initial;&quot;&gt;left,&amp;nbsp;&lt;/span&gt;&lt;span style=&quot;background-color: initial;&quot;&gt;right&lt;/span&gt;" style="shape=parallelogram;perimeter=parallelogramPerimeter;whiteSpace=wrap;html=1;fixedSize=1;" vertex="1" parent="1">
          <mxGeometry x="320" y="240" width="120" height="40" as="geometry" />
        </mxCell>
        <mxCell id="tvBp9m7x3tbelSFkrrXn-54" value="нет" style="edgeStyle=none;shape=connector;rounded=0;orthogonalLoop=1;jettySize=auto;html=1;strokeColor=default;align=center;verticalAlign=middle;fontFamily=Helvetica;fontSize=11;fontColor=default;labelBackgroundColor=default;endArrow=classic;" edge="1" parent="1" source="tvBp9m7x3tbelSFkrrXn-45" target="tvBp9m7x3tbelSFkrrXn-46">
          <mxGeometry relative="1" as="geometry" />
        </mxCell>
        <mxCell id="tvBp9m7x3tbelSFkrrXn-64" value="да" style="edgeStyle=none;shape=connector;rounded=0;orthogonalLoop=1;jettySize=auto;html=1;strokeColor=default;align=center;verticalAlign=middle;fontFamily=Helvetica;fontSize=11;fontColor=default;labelBackgroundColor=default;endArrow=classic;" edge="1" parent="1" source="tvBp9m7x3tbelSFkrrXn-45" target="tvBp9m7x3tbelSFkrrXn-59">
          <mxGeometry relative="1" as="geometry" />
        </mxCell>
        <mxCell id="tvBp9m7x3tbelSFkrrXn-45" value="Если left &amp;lt; n и a[left] &amp;gt; a[largest]" style="rhombus;whiteSpace=wrap;html=1;" vertex="1" parent="1">
          <mxGeometry x="320" y="320" width="120" height="60" as="geometry" />
        </mxCell>
        <mxCell id="tvBp9m7x3tbelSFkrrXn-55" value="нет" style="edgeStyle=none;shape=connector;rounded=0;orthogonalLoop=1;jettySize=auto;html=1;strokeColor=default;align=center;verticalAlign=middle;fontFamily=Helvetica;fontSize=11;fontColor=default;labelBackgroundColor=default;endArrow=classic;" edge="1" parent="1" source="tvBp9m7x3tbelSFkrrXn-46" target="tvBp9m7x3tbelSFkrrXn-50">
          <mxGeometry relative="1" as="geometry" />
        </mxCell>
        <mxCell id="tvBp9m7x3tbelSFkrrXn-62" value="да" style="edgeStyle=none;shape=connector;rounded=0;orthogonalLoop=1;jettySize=auto;html=1;strokeColor=default;align=center;verticalAlign=middle;fontFamily=Helvetica;fontSize=11;fontColor=default;labelBackgroundColor=default;endArrow=classic;" edge="1" parent="1" source="tvBp9m7x3tbelSFkrrXn-46" target="tvBp9m7x3tbelSFkrrXn-60">
          <mxGeometry relative="1" as="geometry" />
        </mxCell>
        <mxCell id="tvBp9m7x3tbelSFkrrXn-46" value="Если right &amp;lt; n и a[right] &amp;gt; a[largest]" style="rhombus;whiteSpace=wrap;html=1;" vertex="1" parent="1">
          <mxGeometry x="320" y="440" width="120" height="60" as="geometry" />
        </mxCell>
        <mxCell id="tvBp9m7x3tbelSFkrrXn-57" style="edgeStyle=none;shape=connector;rounded=0;orthogonalLoop=1;jettySize=auto;html=1;strokeColor=default;align=center;verticalAlign=middle;fontFamily=Helvetica;fontSize=11;fontColor=default;labelBackgroundColor=default;endArrow=classic;" edge="1" parent="1" source="tvBp9m7x3tbelSFkrrXn-49" target="tvBp9m7x3tbelSFkrrXn-51">
          <mxGeometry relative="1" as="geometry" />
        </mxCell>
        <mxCell id="tvBp9m7x3tbelSFkrrXn-49" value="Поменять largest и i элементы массива" style="rounded=1;whiteSpace=wrap;html=1;" vertex="1" parent="1">
          <mxGeometry x="320" y="640" width="120" height="40" as="geometry" />
        </mxCell>
        <mxCell id="tvBp9m7x3tbelSFkrrXn-56" value="нет" style="edgeStyle=none;shape=connector;rounded=0;orthogonalLoop=1;jettySize=auto;html=1;strokeColor=default;align=center;verticalAlign=middle;fontFamily=Helvetica;fontSize=11;fontColor=default;labelBackgroundColor=default;endArrow=classic;" edge="1" parent="1" source="tvBp9m7x3tbelSFkrrXn-50" target="tvBp9m7x3tbelSFkrrXn-49">
          <mxGeometry relative="1" as="geometry" />
        </mxCell>
        <mxCell id="tvBp9m7x3tbelSFkrrXn-61" value="да" style="edgeStyle=none;shape=connector;rounded=0;orthogonalLoop=1;jettySize=auto;html=1;strokeColor=default;align=center;verticalAlign=middle;fontFamily=Helvetica;fontSize=11;fontColor=default;labelBackgroundColor=default;endArrow=classic;" edge="1" parent="1" source="tvBp9m7x3tbelSFkrrXn-50" target="tvBp9m7x3tbelSFkrrXn-58">
          <mxGeometry relative="1" as="geometry" />
        </mxCell>
        <mxCell id="tvBp9m7x3tbelSFkrrXn-50" value="Если largest == i" style="rhombus;whiteSpace=wrap;html=1;" vertex="1" parent="1">
          <mxGeometry x="320" y="560" width="120" height="60" as="geometry" />
        </mxCell>
        <mxCell id="tvBp9m7x3tbelSFkrrXn-51" value="Вызвать функцию makeHeap" style="rounded=1;whiteSpace=wrap;html=1;" vertex="1" parent="1">
          <mxGeometry x="320" y="720" width="120" height="40" as="geometry" />
        </mxCell>
        <mxCell id="tvBp9m7x3tbelSFkrrXn-58" value="Конец функции makeHeap" style="ellipse;whiteSpace=wrap;html=1;" vertex="1" parent="1">
          <mxGeometry x="480" y="640" width="120" height="80" as="geometry" />
        </mxCell>
        <mxCell id="tvBp9m7x3tbelSFkrrXn-65" style="edgeStyle=none;shape=connector;rounded=0;orthogonalLoop=1;jettySize=auto;html=1;strokeColor=default;align=center;verticalAlign=middle;fontFamily=Helvetica;fontSize=11;fontColor=default;labelBackgroundColor=default;endArrow=classic;" edge="1" parent="1" source="tvBp9m7x3tbelSFkrrXn-59" target="tvBp9m7x3tbelSFkrrXn-46">
          <mxGeometry relative="1" as="geometry" />
        </mxCell>
        <mxCell id="tvBp9m7x3tbelSFkrrXn-59" value="largest = left" style="rounded=1;whiteSpace=wrap;html=1;" vertex="1" parent="1">
          <mxGeometry x="480" y="380" width="120" height="40" as="geometry" />
        </mxCell>
        <mxCell id="tvBp9m7x3tbelSFkrrXn-63" style="edgeStyle=none;shape=connector;rounded=0;orthogonalLoop=1;jettySize=auto;html=1;strokeColor=default;align=center;verticalAlign=middle;fontFamily=Helvetica;fontSize=11;fontColor=default;labelBackgroundColor=default;endArrow=classic;" edge="1" parent="1" source="tvBp9m7x3tbelSFkrrXn-60" target="tvBp9m7x3tbelSFkrrXn-50">
          <mxGeometry relative="1" as="geometry" />
        </mxCell>
        <mxCell id="tvBp9m7x3tbelSFkrrXn-60" value="largest = right" style="rounded=1;whiteSpace=wrap;html=1;" vertex="1" parent="1">
          <mxGeometry x="480" y="500" width="120" height="40" as="geometry" />
        </mxCell>
      </root>
    </mxGraphModel>
  </diagram>
</mxfile>
